<?xml version="1.0" encoding="UTF-8" standalone="no"?>
<!-- Generator: Adobe Illustrator 19.0.0, SVG Export Plug-In . SVG Version: 6.00 Build 0)  -->

<svg
   xmlns:dc="http://purl.org/dc/elements/1.1/"
   xmlns:cc="http://creativecommons.org/ns#"
   xmlns:rdf="http://www.w3.org/1999/02/22-rdf-syntax-ns#"
   xmlns:svg="http://www.w3.org/2000/svg"
   xmlns="http://www.w3.org/2000/svg"
   xmlns:sodipodi="http://sodipodi.sourceforge.net/DTD/sodipodi-0.dtd"
   xmlns:inkscape="http://www.inkscape.org/namespaces/inkscape"
   version="1.1"
   id="svg2"
   x="0px"
   y="0px"
   viewBox="-47 347.2 409.2 161.7"
   style="enable-background:new -47 347.2 409.2 161.7;"
   xml:space="preserve"
   sodipodi:docname="briar-qr-code.svg"
   inkscape:version="0.92.2 (5c3e80d, 2017-08-06)"><metadata
     id="metadata29"><rdf:RDF><cc:Work
         rdf:about=""><dc:format>image/svg+xml</dc:format><dc:type
           rdf:resource="http://purl.org/dc/dcmitype/StillImage" /><dc:title></dc:title></cc:Work></rdf:RDF></metadata><defs
     id="defs27" /><sodipodi:namedview
     pagecolor="#000000"
     bordercolor="#666666"
     borderopacity="1"
     objecttolerance="10"
     gridtolerance="10"
     guidetolerance="10"
     inkscape:pageopacity="0"
     inkscape:pageshadow="2"
     inkscape:window-width="1920"
     inkscape:window-height="1021"
     id="namedview25"
     showgrid="false"
     inkscape:zoom="0.76246332"
     inkscape:cx="212.46924"
     inkscape:cy="80.849998"
     inkscape:window-x="1440"
     inkscape:window-y="23"
     inkscape:window-maximized="0"
     inkscape:current-layer="svg2" /><style
     type="text/css"
     id="style2">
	.st0{display:none;fill:none;stroke:#FFFFFF;stroke-width:4.3281;}
	.st1{fill-rule:evenodd;clip-rule:evenodd;fill:#020202;}
</style><polygon
     class="st0"
     points="152,392 152,411.8 110,411.8 126,383.1 126,392 "
     id="polygon14" /><polygon
     class="st0"
     points="152,392 152,411.8 110,411.8 126,383.1 126,392 "
     id="polygon16" /><g
     id="g845"
     style="fill:#ffffff;fill-opacity:1"><path
       d="m 322.8,504.6 -4.3,-4.3 -7.1,-2.4 c -3.9,-1.3 -8.7,-3 -10.7,-3.7 l -3.7,-1.3 3.5,-0.2 c 8.2,-0.4 13,-4 14.3,-10.9 0.8,-4.1 1.1,-17.3 0.8,-33 -0.2,-8.1 -0.2,-15.4 0,-16.3 0.1,-0.9 0.5,-2.4 0.9,-3.4 1.2,-3.5 0.3,-11.9 -1.9,-17.6 -0.3,-0.9 -1.9,-4.2 -3.5,-7.4 -4.2,-8.2 -4.5,-8.9 -4.9,-10.5 -0.5,-1.8 -0.2,-5.4 0.5,-6.8 0.7,-1.3 2.2,-2.9 3.2,-3.5 1.3,-0.7 2.6,0.1 4.7,2.9 3.4,4.5 14,19.4 15.7,22.2 3.7,6 6,11.2 8,18.8 0.7,2.5 1.9,7 2.7,10.1 0.8,3.1 2.7,10.2 4.1,15.8 l 2.6,10.2 4.6,5.2 c 2.6,2.9 5.8,6.5 7.2,8 1.4,1.6 2.5,3 2.5,3.2 0,0.3 -34.5,29.3 -34.9,29.3 0.1,-0.1 -1.9,-2.1 -4.3,-4.4 z m -93.9,-16.4 c -1.3,-0.6 -2.2,-1.4 -2.9,-2.3 -2.1,-2.7 -2,2.4 -1.9,-68.5 l 0.1,-64 0.7,-1.2 c 1,-1.9 2,-2.9 3.7,-3.9 l 1.6,-0.9 37.8,-0.1 c 42.5,-0.1 39.4,-0.2 42.1,2.2 0.9,0.8 1.8,2 2.2,2.9 0.7,1.6 0.7,1.6 0.8,14.2 l 0.1,12.6 -1.8,-0.1 c -1.4,-0.1 -2.1,0 -3.2,0.5 -2,1 -3.9,2.9 -5.1,5.1 l -1,2 v -12.8 -12.8 h -33.6 -33.6 v 51.3 51.3 h 33.6 33.6 l 0.1,-34.4 c 0.1,-33 0.1,-34.4 0.6,-32.9 0.3,0.8 1.8,4 3.4,7 5.5,10.6 5.4,9.9 5.4,47.2 0,27.6 -0.1,30 -1.7,33.1 -1.1,2.2 -2.7,3.7 -5.1,4.7 l -1.7,0.7 -36.1,-0.1 -36.2,0.1 z m 42.4,-5.1 c 2.9,-1.3 4.5,-3.7 4.4,-6.6 0,-4.1 -3.1,-7.2 -7.1,-7.2 -2.1,0 -3.6,0.6 -5.2,2.2 -2.2,2.2 -2.8,5.4 -1.3,8.3 0.7,1.4 2.5,3 4,3.5 1.5,0.5 3.9,0.5 5.2,-0.2 z"
       id="path4201"
       inkscape:connector-curvature="0"
       style="fill:#ffffff;fill-opacity:1" /><path
       d="m -7.6,504.6 4.3,-4.3 7.1,-2.4 c 3.9,-1.3 8.7,-3 10.7,-3.7 l 3.7,-1.3 -3.5,-0.2 c -8.2,-0.4 -13,-4 -14.3,-10.9 -0.8,-4.1 -1.1,-17.3 -0.8,-33 0.2,-8.1 0.2,-15.4 0,-16.3 -0.1,-0.9 -0.5,-2.4 -0.9,-3.4 -1.2,-3.5 -0.3,-11.9 1.9,-17.6 0.3,-0.9 1.9,-4.2 3.5,-7.4 4.2,-8.2 4.5,-8.9 4.9,-10.5 0.5,-1.8 0.2,-5.4 -0.5,-6.8 -0.7,-1.3 -2.2,-2.9 -3.2,-3.5 -1.3,-0.7 -2.6,0.1 -4.7,2.9 -3.4,4.5 -14,19.4 -15.7,22.2 -3.7,6 -6,11.2 -8,18.8 -0.7,2.5 -1.9,7 -2.7,10.1 -0.8,3.1 -2.7,10.2 -4.1,15.8 l -2.6,10.2 -4.6,5.2 c -2.6,2.9 -5.8,6.5 -7.2,8 -1.4,1.5 -2.5,3 -2.5,3.2 0,0.3 34.5,29.3 34.9,29.3 -0.1,-0.1 2,-2.1 4.3,-4.4 z m 93.9,-16.4 c 1.3,-0.6 2.2,-1.4 2.9,-2.3 2.1,-2.7 2,2.4 1.9,-68.5 l -0.1,-64 -0.7,-1.2 c -1,-1.9 -2,-2.9 -3.7,-3.9 L 85,347.4 47.2,347.3 c -42.5,-0.1 -39.4,-0.2 -42.1,2.2 -0.9,0.8 -1.8,2 -2.2,2.9 C 2.2,354 2.2,354 2.1,366.6 L 2,379.2 3.8,379.1 c 1.4,-0.1 2.1,0 3.2,0.5 2,1 3.9,2.9 5.1,5.1 l 1,2 v -12.8 -12.8 h 33.6 33.6 v 51.3 51.3 H 46.8 13.2 l -0.1,-34.4 c -0.1,-33 -0.1,-34.4 -0.6,-32.9 -0.3,0.8 -1.8,4 -3.4,7 -5.5,10.6 -5.4,9.9 -5.4,47.2 0,27.6 0.1,30 1.7,33.1 1.1,2.2 2.7,3.7 5.1,4.7 l 1.7,0.7 36.2,0.1 36.2,0.1 z m -42.4,-5.1 c -2.9,-1.3 -4.5,-3.7 -4.4,-6.6 0,-4.1 3.1,-7.2 7.1,-7.2 2.1,0 3.6,0.6 5.2,2.2 2.2,2.2 2.8,5.4 1.3,8.3 -0.7,1.4 -2.5,3 -4,3.5 -1.5,0.5 -3.8,0.5 -5.2,-0.2 z"
       id="path4201-1"
       inkscape:connector-curvature="0"
       style="fill:#ffffff;fill-opacity:1" /><g
       id="g8"
       style="fill:#ffffff;fill-opacity:1"><path
         inkscape:connector-curvature="0"
         id="path6"
         d="m 33.5,410.2 h 2.3 v 2.3 h 2.3 v 2.3 H 26.6 v -2.3 h 2.3 v -4.6 h 4.6 z m 30,20.8 h 2.3 v -2.3 H 63.5 Z M 35.8,410.2 h 2.3 v -2.3 H 35.8 Z M 68.1,431 h 2.3 v -2.3 h -2.3 z m -27.7,2.3 H 45 V 431 h -4.6 z m 20.8,0 V 431 h -2.3 v 2.3 z m -9.2,0 h 2.3 v -4.6 H 52 Z m -18.5,-30 v 2.3 h 6.9 v -2.3 z m -2.3,2.3 v -2.3 h -4.6 v 4.6 h 2.3 v -2.3 z M 38.1,401 H 22 V 384.9 H 38.1 Z M 35.8,387.2 H 24.3 v 11.5 h 11.5 z m -9.2,41.5 h 6.9 v -6.9 h -6.9 z m 23,-2.4 v 2.3 H 52 v -2.3 z M 33.5,389.5 h -6.9 v 6.9 h 6.9 z m 36.9,-4.6 V 401 H 54.3 v -16.1 z m -2.3,2.3 H 56.6 v 11.5 H 68.1 Z M 22,417.1 h 16.1 v 16.1 H 22 Z M 24.3,431 H 35.8 V 419.5 H 24.3 Z m 0,-27.7 H 22 v 11.5 h 2.3 z m 30,11.5 v 2.3 h 2.3 v -2.3 z m -7,9.3 v -2.3 H 45 v 2.3 h -4.6 v 4.6 H 45 v 2.3 h 2.3 v -4.6 h 2.3 v -2.3 z m -6.9,-30 H 45 v -2.3 h -4.6 z m 18.5,18.4 h 4.6 v 2.3 h 2.3 v -6.9 h -2.3 v -4.6 h -2.3 v 6.9 h -6.9 v 2.3 h 2.3 v 2.3 h 2.3 z m 2.3,6.9 h -2.3 v -2.3 h -2.3 v 4.6 h -6.9 v 2.3 h 4.6 v 4.6 h 2.3 v 2.3 h 2.3 v -4.6 h 9.2 V 424 h -6.9 z m 0,0 h 2.3 v -4.6 h -2.3 z m -18.5,0 v -2.3 H 45 v -2.3 h 2.3 v -2.3 h 2.3 v -4.6 h 6.9 v -4.6 h -2.3 v 2.3 H 52 v -9.2 h -2.3 v -4.6 H 52 v -6.9 h -2.3 v 4.6 h -2.3 v -4.6 h -6.9 v 4.6 h 2.3 v -2.3 H 45 v 4.6 h 2.3 v 6.9 h 2.3 v 2.3 h -2.3 v 4.6 H 45 V 401 h -2.3 v -2.3 h -2.3 v 4.6 h 2.3 v 2.3 h -2.3 v 6.9 h 2.3 v -4.6 H 45 v 4.6 h -2.3 v 2.3 h -2.3 v 6.9 H 45 v -2.3 z m 25.4,2.3 v -2.3 h -4.6 v 2.3 z m -2.3,-32.2 h -6.9 v 6.9 h 6.9 z M 47.3,419.4 H 52 v -2.3 h -2.3 v -2.3 h -2.3 v 4.6 z m 4.7,-4.6 v -2.3 h -2.3 v 2.3 z m 13.8,-9.2 h 4.6 v -2.3 h -4.6 z m 2.3,18.5 h 2.3 v -2.3 h -2.3 z m 0,-13.9 h 2.3 v -2.3 H 68.1 Z M 47.3,398.7 H 45 v 2.3 h 2.3 z m 0,0"
         style="fill:#ffffff;fill-opacity:1" /></g><g
       id="g12"
       style="fill:#ffffff;fill-opacity:1"><path
         inkscape:connector-curvature="0"
         id="path10"
         d="m 256.5,410.2 h 2.3 v 2.3 h 2.3 v 2.3 h -11.5 v -2.3 h 2.3 v -4.6 h 4.6 z m 30,20.8 h 2.3 v -2.3 h -2.3 z m -27.7,-20.8 h 2.3 v -2.3 h -2.3 z m 32.3,20.8 h 2.3 v -2.3 h -2.3 z m -27.7,2.3 H 268 V 431 h -4.6 z m 20.8,0 V 431 h -2.3 v 2.3 z m -9.2,0 h 2.3 v -4.6 H 275 Z m -18.5,-30 v 2.3 h 6.9 v -2.3 z m -2.3,2.3 v -2.3 h -4.6 v 4.6 h 2.3 v -2.3 z m 6.9,-4.6 H 245 v -16.1 h 16.1 z m -2.3,-13.8 h -11.5 v 11.5 h 11.5 z m -9.2,41.5 h 6.9 v -6.9 h -6.9 z m 23,-2.4 v 2.3 h 2.3 v -2.3 z m -16.1,-36.8 h -6.9 v 6.9 h 6.9 z m 36.9,-4.6 V 401 h -16.1 v -16.1 z m -2.3,2.3 h -11.5 v 11.5 h 11.5 z M 245,417.1 h 16.1 v 16.1 H 245 Z m 2.3,13.9 h 11.5 v -11.5 h -11.5 z m 0,-27.7 H 245 v 11.5 h 2.3 z m 30,11.5 v 2.3 h 2.3 v -2.3 z m -7,9.3 v -2.3 H 268 v 2.3 h -4.6 v 4.6 h 4.6 v 2.3 h 2.3 v -4.6 h 2.3 v -2.3 z m -6.9,-30 h 4.6 v -2.3 h -4.6 z m 18.5,18.4 h 4.6 v 2.3 h 2.3 v -6.9 h -2.3 v -4.6 h -2.3 v 6.9 h -6.9 v 2.3 h 2.3 v 2.3 h 2.3 z m 2.3,6.9 h -2.3 v -2.3 h -2.3 v 4.6 h -6.9 v 2.3 h 4.6 v 4.6 h 2.3 v 2.3 h 2.3 v -4.6 h 9.2 V 424 h -6.9 z m 0,0 h 2.3 v -4.6 h -2.3 z m -18.5,0 v -2.3 h 2.3 v -2.3 h 2.3 v -2.3 h 2.3 v -4.6 h 6.9 v -4.6 h -2.3 v 2.3 H 275 v -9.2 h -2.3 v -4.6 h 2.3 v -6.9 h -2.3 v 4.6 h -2.3 v -4.6 h -6.9 v 4.6 h 2.3 v -2.3 h 2.3 v 4.6 h 2.3 v 6.9 h 2.3 v 2.3 h -2.3 v 4.6 H 268 V 401 h -2.3 v -2.3 h -2.3 v 4.6 h 2.3 v 2.3 h -2.3 v 6.9 h 2.3 v -4.6 h 2.3 v 4.6 h -2.3 v 2.3 h -2.3 v 6.9 h 4.6 v -2.3 z m 25.4,2.3 v -2.3 h -4.6 v 2.3 z m -2.3,-32.2 h -6.9 v 6.9 h 6.9 z m -18.5,29.9 h 4.6 v -2.3 h -2.3 v -2.3 h -2.3 z m 4.7,-4.6 v -2.3 h -2.3 v 2.3 z m 13.8,-9.2 h 4.6 v -2.3 h -4.6 z m 2.3,18.5 h 2.3 v -2.3 h -2.3 z m 0,-13.9 h 2.3 v -2.3 h -2.3 z M 270.3,398.7 H 268 v 2.3 h 2.3 z m 0,0"
         style="fill:#ffffff;fill-opacity:1" /></g><g
       id="g22"
       style="fill:#ffffff;fill-opacity:1"><path
         style="clip-rule:evenodd;fill:#ffffff;fill-rule:evenodd;fill-opacity:1"
         inkscape:connector-curvature="0"
         id="path18"
         d="m 132.6,396.1 -20.6,18 20.6,16.7 v -5.2 H 152 v -24.3 h -19.3 v -5.2 z"
         class="st1" /><path
         style="clip-rule:evenodd;fill:#ffffff;fill-rule:evenodd;fill-opacity:1"
         inkscape:connector-curvature="0"
         id="path20"
         d="m 182.4,430.9 20.6,-18 -20.6,-16.7 v 5.2 H 163 v 24.3 h 19.3 v 5.2 z"
         class="st1" /></g></g></svg>