<?xml version="1.0" encoding="UTF-8" standalone="no"?>
<svg
   xmlns:dc="http://purl.org/dc/elements/1.1/"
   xmlns:cc="http://creativecommons.org/ns#"
   xmlns:rdf="http://www.w3.org/1999/02/22-rdf-syntax-ns#"
   xmlns:svg="http://www.w3.org/2000/svg"
   xmlns="http://www.w3.org/2000/svg"
   xmlns:sodipodi="http://sodipodi.sourceforge.net/DTD/sodipodi-0.dtd"
   xmlns:inkscape="http://www.inkscape.org/namespaces/inkscape"
   width="691pt"
   height="241pt"
   viewBox="0 0 691 241"
   version="1.1"
   id="svg2"
   inkscape:version="0.91 r13725"
   sodipodi:docname="encryption_transport.svg">
  <metadata
     id="metadata31">
    <rdf:RDF>
      <cc:Work
         rdf:about="">
        <dc:format>image/svg+xml</dc:format>
        <dc:type
           rdf:resource="http://purl.org/dc/dcmitype/StillImage" />
        <dc:title></dc:title>
      </cc:Work>
    </rdf:RDF>
  </metadata>
  <defs
     id="defs29" />
  <sodipodi:namedview
     pagecolor="#000000"
     bordercolor="#666666"
     borderopacity="1"
     objecttolerance="10"
     gridtolerance="10"
     guidetolerance="10"
     inkscape:pageopacity="0"
     inkscape:pageshadow="2"
     inkscape:window-width="1920"
     inkscape:window-height="1012"
     id="namedview27"
     showgrid="false"
     inkscape:zoom="1.1068114"
     inkscape:cx="318.78934"
     inkscape:cy="131.834"
     inkscape:window-x="1440"
     inkscape:window-y="0"
     inkscape:window-maximized="1"
     inkscape:current-layer="svg2" />
  <path
     inkscape:connector-curvature="0"
     id="path9"
     d="m 378.71874,85 c 0,13.2539 -10.74218,24 -24,24 -13.2539,0 -24,-10.7461 -24,-24 0,-13.2539 10.7461,-24 24,-24 13.25782,0 24,10.7461 24,24"
     style="fill:#ffffff;fill-opacity:1;fill-rule:evenodd;stroke:#000000;stroke-width:1;stroke-linecap:butt;stroke-linejoin:miter;stroke-miterlimit:10;stroke-opacity:1" />
  <path
     inkscape:connector-curvature="0"
     id="path11"
     d="m 378.71874,85 c 0,13.2539 -10.74218,24 -24,24 -13.2539,0 -24,-10.7461 -24,-24 0,-13.2539 10.7461,-24 24,-24 13.25782,0 24,10.7461 24,24"
     style="fill:none;stroke:#000000;stroke-width:1;stroke-linecap:butt;stroke-linejoin:miter;stroke-miterlimit:10;stroke-opacity:1" />
  <path
     inkscape:connector-curvature="0"
     id="path13"
     d="m 588.64062,169.96094 c 0,4.94922 -4.01172,8.96094 -8.96094,8.96094 -4.94922,0 -8.96092,-4.01172 -8.96092,-8.96094 0,-4.94922 4.0117,-8.96094 8.96092,-8.96094 4.94922,0 8.96094,4.01172 8.96094,8.96094"
     style="fill:#ffffff;fill-opacity:1;fill-rule:evenodd;stroke:#000000;stroke-width:2;stroke-linecap:butt;stroke-linejoin:miter;stroke-miterlimit:10;stroke-opacity:1" />
  <path
     inkscape:connector-curvature="0"
     id="path15"
     d="m 588.64062,169.96094 c 0,4.94922 -4.01172,8.96094 -8.96094,8.96094 -4.94922,0 -8.96092,-4.01172 -8.96092,-8.96094 0,-4.94922 4.0117,-8.96094 8.96092,-8.96094 4.94922,0 8.96094,4.01172 8.96094,8.96094"
     style="fill:none;stroke:#000000;stroke-width:2;stroke-linecap:butt;stroke-linejoin:miter;stroke-miterlimit:10;stroke-opacity:1" />
  <path
     inkscape:connector-curvature="0"
     id="path17"
     d="m 128.64062,169.96094 c 0,4.94922 -4.01172,8.96094 -8.96094,8.96094 -4.94922,0 -8.96094,-4.01172 -8.96094,-8.96094 0,-4.94922 4.01172,-8.96094 8.96094,-8.96094 4.94922,0 8.96094,4.01172 8.96094,8.96094"
     style="fill:#ffffff;fill-opacity:1;fill-rule:evenodd;stroke:#000000;stroke-width:2;stroke-linecap:butt;stroke-linejoin:miter;stroke-miterlimit:10;stroke-opacity:1" />
  <path
     inkscape:connector-curvature="0"
     id="path19"
     d="m 128.64062,169.96094 c 0,4.94922 -4.01172,8.96094 -8.96094,8.96094 -4.94922,0 -8.96094,-4.01172 -8.96094,-8.96094 0,-4.94922 4.01172,-8.96094 8.96094,-8.96094 4.94922,0 8.96094,4.01172 8.96094,8.96094"
     style="fill:none;stroke:#000000;stroke-width:2;stroke-linecap:butt;stroke-linejoin:miter;stroke-miterlimit:10;stroke-opacity:1" />
  <path
     inkscape:connector-curvature="0"
     id="path21"
     d="M 570.36328,166.4414 377.15624,93.47266"
     style="fill:none;stroke:#ffffff;stroke-width:2;stroke-linecap:butt;stroke-linejoin:miter;stroke-miterlimit:10;stroke-opacity:1" />
  <path
     inkscape:connector-curvature="0"
     id="path23"
     d="M 129.04688,166.57422 332.15234,93.15626"
     style="fill:none;stroke:#ffffff;stroke-width:2;stroke-linecap:butt;stroke-linejoin:miter;stroke-miterlimit:10;stroke-opacity:1" />
  <path
     inkscape:connector-curvature="0"
     id="path25"
     d="m 354.71874,85 0,0"
     style="fill:none;stroke:#ffffff;stroke-width:2;stroke-linecap:butt;stroke-linejoin:miter;stroke-miterlimit:10;stroke-opacity:1" />
  <text
     xml:space="preserve"
     style="font-style:normal;font-variant:normal;font-weight:normal;font-stretch:normal;font-size:20px;line-height:125%;font-family:FreeSans;-inkscape-font-specification:FreeSans;letter-spacing:0px;word-spacing:0px;fill:#ffffff;fill-opacity:1;stroke:none;stroke-width:1px;stroke-linecap:butt;stroke-linejoin:miter;stroke-opacity:1"
     x="89.626831"
     y="214.25652"
     id="text3370"
     sodipodi:linespacing="125%"><tspan
       sodipodi:role="line"
       id="tspan3372"
       x="89.626831"
       y="214.25652"
       style="font-style:normal;font-variant:normal;font-weight:bold;font-stretch:normal;font-size:24px;font-family:Roboto;-inkscape-font-specification:'Roboto Bold'">Alice</tspan></text>
  <text
     xml:space="preserve"
     style="font-style:normal;font-variant:normal;font-weight:normal;font-stretch:normal;font-size:20px;line-height:125%;font-family:FreeSans;-inkscape-font-specification:FreeSans;letter-spacing:0px;word-spacing:0px;fill:#ffffff;fill-opacity:1;stroke:none;stroke-width:1px;stroke-linecap:butt;stroke-linejoin:miter;stroke-opacity:1"
     x="559.25281"
     y="215.91135"
     id="text3370-2"
     sodipodi:linespacing="125%"><tspan
       sodipodi:role="line"
       id="tspan3372-6"
       x="559.25281"
       y="215.91135"
       style="font-style:normal;font-variant:normal;font-weight:bold;font-stretch:normal;font-size:24px;font-family:Roboto;-inkscape-font-specification:'Roboto Bold'">Bob</tspan></text>
  <text
     xml:space="preserve"
     style="font-style:normal;font-variant:normal;font-weight:normal;font-stretch:normal;font-size:20px;line-height:125%;font-family:FreeSans;-inkscape-font-specification:FreeSans;letter-spacing:0px;word-spacing:0px;fill:#ffffff;fill-opacity:1;stroke:none;stroke-width:1px;stroke-linecap:butt;stroke-linejoin:miter;stroke-opacity:1"
     x="319.28424"
     y="40.994469"
     id="text3370-0"
     sodipodi:linespacing="125%"><tspan
       sodipodi:role="line"
       id="tspan3372-0"
       x="319.28424"
       y="40.994469"
       style="font-style:normal;font-variant:normal;font-weight:bold;font-stretch:normal;font-size:24px;font-family:Roboto;-inkscape-font-specification:'Roboto Bold'">Server</tspan></text>
</svg>
