<?xml version="1.0" encoding="UTF-8" standalone="no"?>
<!-- Created with Inkscape (http://www.inkscape.org/) -->

<svg
   xmlns:dc="http://purl.org/dc/elements/1.1/"
   xmlns:cc="http://creativecommons.org/ns#"
   xmlns:rdf="http://www.w3.org/1999/02/22-rdf-syntax-ns#"
   xmlns:svg="http://www.w3.org/2000/svg"
   xmlns="http://www.w3.org/2000/svg"
   xmlns:sodipodi="http://sodipodi.sourceforge.net/DTD/sodipodi-0.dtd"
   xmlns:inkscape="http://www.inkscape.org/namespaces/inkscape"
   width="800"
   height="600"
   viewBox="0 0 799.99999 600.00002"
   id="svg4150"
   version="1.1"
   inkscape:version="0.92.2 (5c3e80d, 2017-08-06)"
   sodipodi:docname="ICQ-MSN-AIM.svg">
  <defs
     id="defs4152">
    <linearGradient
       id="SVGID_1_"
       gradientUnits="userSpaceOnUse"
       x1="236.5762"
       y1="169.89059"
       x2="252.4729"
       y2="141.1055"
       gradientTransform="translate(-21,-121.5)">
      <stop
         offset="0"
         style="stop-color:#FFFFFF"
         id="stop4912" />
      <stop
         offset="0.0056"
         style="stop-color:#94CBEE"
         id="stop4914" />
      <stop
         offset="0.2111"
         style="stop-color:#76B7E5"
         id="stop4916" />
      <stop
         offset="0.6556"
         style="stop-color:#008ECF"
         id="stop4918" />
      <stop
         offset="0.8539"
         style="stop-color:#007FC5"
         id="stop4920" />
    </linearGradient>
    <linearGradient
       id="SVGID_2_"
       gradientUnits="userSpaceOnUse"
       x1="254.3887"
       y1="160.92191"
       x2="274.77151"
       y2="181.3047"
       gradientTransform="translate(-21,-121.5)">
      <stop
         offset="0"
         style="stop-color:#007FC5"
         id="stop4925" />
      <stop
         offset="0.0873"
         style="stop-color:#0088B2"
         id="stop4927" />
      <stop
         offset="0.2517"
         style="stop-color:#00968D"
         id="stop4929" />
      <stop
         offset="0.3859"
         style="stop-color:#009F6C"
         id="stop4931" />
      <stop
         offset="0.4832"
         style="stop-color:#00A555"
         id="stop4933" />
      <stop
         offset="0.5337"
         style="stop-color:#00A94F"
         id="stop4935" />
    </linearGradient>
    <linearGradient
       id="SVGID_3_"
       gradientUnits="userSpaceOnUse"
       x1="280.25391"
       y1="201.6445"
       x2="261.9498"
       y2="173.45869"
       gradientTransform="translate(-21,-121.5)">
      <stop
         offset="0.0955"
         style="stop-color:#00A94F"
         id="stop4940" />
      <stop
         offset="0.2436"
         style="stop-color:#00B156"
         id="stop4942" />
      <stop
         offset="0.4855"
         style="stop-color:#61BD65"
         id="stop4944" />
      <stop
         offset="0.7009"
         style="stop-color:#86C772"
         id="stop4946" />
      <stop
         offset="0.8798"
         style="stop-color:#9ACE7B"
         id="stop4948" />
      <stop
         offset="1"
         style="stop-color:#A1D07E"
         id="stop4950" />
    </linearGradient>
    <linearGradient
       id="SVGID_4_"
       gradientUnits="userSpaceOnUse"
       x1="299.10159"
       y1="198.21291"
       x2="295.44531"
       y2="165.6161"
       gradientTransform="translate(-21,-121.5)">
      <stop
         offset="0"
         style="stop-color:#F4A656"
         id="stop4955" />
      <stop
         offset="0.4719"
         style="stop-color:#FCCA25"
         id="stop4957" />
      <stop
         offset="0.4944"
         style="stop-color:#FCCA25"
         id="stop4959" />
    </linearGradient>
    <linearGradient
       id="SVGID_5_"
       gradientUnits="userSpaceOnUse"
       x1="273.0928"
       y1="165.3398"
       x2="311.6514"
       y2="165.3398"
       gradientTransform="translate(-21.5659,-121.0361)">
      <stop
         offset="0.2921"
         style="stop-color:#F4A656"
         id="stop4964" />
      <stop
         offset="1"
         style="stop-color:#E95A2F"
         id="stop4966" />
    </linearGradient>
    <linearGradient
       id="SVGID_6_"
       gradientUnits="userSpaceOnUse"
       x1="271.26859"
       y1="143.9473"
       x2="315.61929"
       y2="143.9473"
       gradientTransform="translate(-21.5659,-121.0361)">
      <stop
         offset="0.0169"
         style="stop-color:#F4A656"
         id="stop4971" />
      <stop
         offset="0.5393"
         style="stop-color:#E95A2F"
         id="stop4973" />
    </linearGradient>
    <linearGradient
       id="SVGID_7_"
       gradientUnits="userSpaceOnUse"
       x1="273.39651"
       y1="328.332"
       x2="262.50369"
       y2="332.733"
       gradientTransform="translate(-14.3418,-282.9668)">
      <stop
         offset="0.0449"
         style="stop-color:#3E5BA6"
         id="stop4978" />
      <stop
         offset="0.4719"
         style="stop-color:#6D7CBC"
         id="stop4980" />
      <stop
         offset="0.532"
         style="stop-color:#6373B6"
         id="stop4982" />
      <stop
         offset="0.6585"
         style="stop-color:#4F66AD"
         id="stop4984" />
      <stop
         offset="0.7748"
         style="stop-color:#435EA7"
         id="stop4986" />
      <stop
         offset="0.8708"
         style="stop-color:#3E5BA6"
         id="stop4988" />
      <stop
         offset="1"
         style="stop-color:#3E5BA6"
         id="stop4990" />
    </linearGradient>
  </defs>
  <sodipodi:namedview
     id="base"
     pagecolor="#000000"
     bordercolor="#666666"
     borderopacity="1.0"
     inkscape:pageopacity="1"
     inkscape:pageshadow="2"
     inkscape:zoom="0.98994949"
     inkscape:cx="240.741"
     inkscape:cy="273.80782"
     inkscape:document-units="px"
     inkscape:current-layer="layer1"
     showgrid="false"
     units="px"
     inkscape:window-width="1920"
     inkscape:window-height="1020"
     inkscape:window-x="1440"
     inkscape:window-y="24"
     inkscape:window-maximized="0" />
  <metadata
     id="metadata4155">
    <rdf:RDF>
      <cc:Work
         rdf:about="">
        <dc:format>image/svg+xml</dc:format>
        <dc:type
           rdf:resource="http://purl.org/dc/dcmitype/StillImage" />
        <dc:title></dc:title>
      </cc:Work>
    </rdf:RDF>
  </metadata>
  <g
     inkscape:label="Layer 1"
     inkscape:groupmode="layer"
     id="layer1"
     transform="translate(0,-452.36203)">
    <g
       transform="matrix(1.3614663,0,0,1.3614663,356.03867,745.05567)"
       id="Layer_1">
      <g
         id="g4893">
        <g
           id="g4895">
          <g
             id="g4897">
            <path
               style="fill:#005ca6"
               inkscape:connector-curvature="0"
               d="m 30.917,104.354 -21.286,0 9.76,-58.017 19.757,0 -1.529,9.001 c 1.828,-2.9 3.504,-4.805 5.352,-6.235 3.94,-3.051 8.408,-4.461 13.112,-4.461 7.41,0 11.975,3.654 14.117,10.604 4.231,-7.291 10.309,-10.604 18.185,-10.604 10.226,0 15.837,6.112 16.051,16.048 0.042,1.883 -0.153,3.895 -0.469,5.884 l -6.375,37.78 -21.872,0 5.787,-34.406 c 0.336,-1.986 0.435,-3.064 0.352,-4.239 -0.228,-3.28 -1.752,-4.899 -4.694,-4.899 -2.235,0 -4.293,1.024 -5.675,3.293 -1.039,1.712 -1.205,2.684 -1.908,6.947 l -5.617,33.305 -21.294,0 5.812,-34.406 c 0.334,-1.986 0.383,-3.064 0.302,-4.239 -0.231,-3.28 -1.901,-4.899 -4.842,-4.899 -2.236,0 -4.124,1.024 -5.503,3.293 -1.041,1.712 -1.206,2.684 -1.908,6.947 l -5.615,33.303 z"
               id="path4899" />
            <path
               style="fill:#005ca6"
               inkscape:connector-curvature="0"
               d="m 190.292,46.337 -1.516,9.001 c 1.435,-2.597 3.314,-4.956 5.682,-6.672 3.695,-2.684 8.351,-4.024 13.291,-4.024 9.762,0 15.693,6.243 16.069,14.906 0.081,1.881 0.051,4.219 -0.483,7.277 l -6.293,37.528 -22.019,0 5.698,-33.882 c 0.401,-2.411 0.586,-3.653 0.586,-4.595 0,-3.062 -1.769,-5.097 -5.178,-5.097 -4.589,0 -7.426,2.989 -8.478,9.304 l -5.775,34.27 -21.578,0 9.759,-58.017 20.235,0 z"
               id="path4901" />
            <path
               style="fill:#005ca6"
               inkscape:connector-curvature="0"
               d="m 145.806,63.462 c -1.511,-3.583 -3.948,-6.116 -9.485,-6.355 -4.771,-0.203 -7.979,1.193 -7.979,3.649 0,3.084 2.434,3.763 10.195,5.319 6.492,1.304 10.926,2.763 14.523,4.915 6.081,3.638 8.453,8.934 8.085,15.485 -0.814,14.541 -15.88,20.307 -29.637,20.307 -14.126,0 -24.542,-4.62 -29.033,-17.274 l 17.624,-3.9 c 2.151,4.892 5.596,7.234 11.65,7.383 4.852,0.12 8.336,-1.341 8.336,-3.911 0,-2.979 -3.023,-3.717 -10.812,-5.581 -11.146,-2.662 -21.998,-6.885 -21.77,-18.706 0.313,-16.161 15.904,-21.364 30.289,-20.885 10.604,0.354 21.139,4.795 25.031,15.786 l -17.017,3.768 z"
               id="path4903" />
          </g>
          <path
             style="fill:#005ca6"
             inkscape:connector-curvature="0"
             d="m 227.754,98.668 0.686,0 c 0.604,0 0.79,0.208 0.79,0.479 0,0.562 -0.54,0.644 -0.873,0.644 l -0.603,0 0,-1.123 z m 0,2.057 0.728,0 0.728,1.662 1.287,0 -0.851,-1.995 c 0.229,-0.103 0.851,-0.353 0.851,-1.225 0,-1.37 -1.475,-1.37 -1.744,-1.37 l -2.221,0 0,4.59 1.223,0 0,-1.662 z m -3.736,-0.623 c 0,2.472 1.91,4.403 4.401,4.403 2.492,0 4.403,-1.932 4.403,-4.403 0,-2.533 -1.952,-4.424 -4.403,-4.424 -2.471,0 -4.401,1.89 -4.401,4.424 z m 1.016,0 c 0,-1.849 1.6,-3.406 3.385,-3.406 1.808,0 3.386,1.558 3.386,3.406 0,1.806 -1.578,3.385 -3.386,3.385 -1.806,-10e-4 -3.385,-1.58 -3.385,-3.385 z"
             id="path4905" />
        </g>
        <g
           id="g4907">
          <g
             id="g4909">
            <linearGradient
               id="linearGradient6679"
               gradientUnits="userSpaceOnUse"
               x1="236.5762"
               y1="169.89059"
               x2="252.4729"
               y2="141.1055"
               gradientTransform="translate(-21,-121.5)">
              <stop
                 offset="0"
                 style="stop-color:#FFFFFF"
                 id="stop6681" />
              <stop
                 offset="0.0056"
                 style="stop-color:#94CBEE"
                 id="stop6683" />
              <stop
                 offset="0.2111"
                 style="stop-color:#76B7E5"
                 id="stop6685" />
              <stop
                 offset="0.6556"
                 style="stop-color:#008ECF"
                 id="stop6687" />
              <stop
                 offset="0.8539"
                 style="stop-color:#007FC5"
                 id="stop6689" />
            </linearGradient>
            <path
               style="fill:url(#SVGID_1_)"
               inkscape:connector-curvature="0"
               d="m 246.235,35.751 c -0.233,-1.233 -0.429,-2.459 -0.587,-3.661 -8.091,-7.538 -19.813,-13.804 -28.996,-16.517 -2.645,-0.78 -5.909,-1.285 -7.639,0.642 -1.397,1.557 -0.975,4.494 0.6,8.081 5.427,12.372 15.466,25.525 25.344,33.211 0,-0.002 0,-0.003 0,-0.003 -2.167,-10.255 1.542,-19.23 11.278,-21.753 z"
               id="path4922" />
            <linearGradient
               id="linearGradient6692"
               gradientUnits="userSpaceOnUse"
               x1="254.3887"
               y1="160.92191"
               x2="274.77151"
               y2="181.3047"
               gradientTransform="translate(-21,-121.5)">
              <stop
                 offset="0"
                 style="stop-color:#007FC5"
                 id="stop6694" />
              <stop
                 offset="0.0873"
                 style="stop-color:#0088B2"
                 id="stop6696" />
              <stop
                 offset="0.2517"
                 style="stop-color:#00968D"
                 id="stop6698" />
              <stop
                 offset="0.3859"
                 style="stop-color:#009F6C"
                 id="stop6700" />
              <stop
                 offset="0.4832"
                 style="stop-color:#00A555"
                 id="stop6702" />
              <stop
                 offset="0.5337"
                 style="stop-color:#00A94F"
                 id="stop6704" />
            </linearGradient>
            <path
               style="fill:url(#SVGID_2_)"
               inkscape:connector-curvature="0"
               d="m 253.156,55.715 c -3.012,-5.187 -5.569,-12.761 -6.921,-19.964 -9.736,2.523 -13.445,11.498 -11.278,21.753 0,0 0,0.001 0,0.003 0.003,0.006 0.003,0.003 0.002,0 1.292,1.006 2.733,1.988 3.864,2.576 5.238,2.723 8.701,2.186 11.688,0.499 1.192,-0.676 2.703,-2.399 3.468,-3.502 -0.283,-0.451 -0.557,-0.906 -0.823,-1.365 z"
               id="path4937" />
            <linearGradient
               id="linearGradient6707"
               gradientUnits="userSpaceOnUse"
               x1="280.25391"
               y1="201.6445"
               x2="261.9498"
               y2="173.45869"
               gradientTransform="translate(-21,-121.5)">
              <stop
                 offset="0.0955"
                 style="stop-color:#00A94F"
                 id="stop6709" />
              <stop
                 offset="0.2436"
                 style="stop-color:#00B156"
                 id="stop6711" />
              <stop
                 offset="0.4855"
                 style="stop-color:#61BD65"
                 id="stop6713" />
              <stop
                 offset="0.7009"
                 style="stop-color:#86C772"
                 id="stop6715" />
              <stop
                 offset="0.8798"
                 style="stop-color:#9ACE7B"
                 id="stop6717" />
              <stop
                 offset="1"
                 style="stop-color:#A1D07E"
                 id="stop6719" />
            </linearGradient>
            <path
               style="fill:url(#SVGID_3_)"
               inkscape:connector-curvature="0"
               d="m 250.511,60.582 c -2.986,1.687 -6.449,2.224 -11.688,-0.499 -1.131,-0.588 -2.572,-1.57 -3.864,-2.576 0,0.003 0.001,0.005 0,0.002 3.996,10.235 10.033,17.533 18.036,21.864 1.431,0.773 2.768,0.978 4.177,0.305 0.942,-0.449 1.471,-1.501 1.731,-2.117 1.263,-2.99 1.864,-6.584 2.155,-11.471 -2.702,-2.763 -5.078,-5.797 -7.08,-9.01 -0.764,1.103 -2.275,2.826 -3.467,3.502 z"
               id="path4952" />
            <linearGradient
               id="linearGradient6722"
               gradientUnits="userSpaceOnUse"
               x1="299.10159"
               y1="198.21291"
               x2="295.44531"
               y2="165.6161"
               gradientTransform="translate(-21,-121.5)">
              <stop
                 offset="0"
                 style="stop-color:#F4A656"
                 id="stop6724" />
              <stop
                 offset="0.4719"
                 style="stop-color:#FCCA25"
                 id="stop6726" />
              <stop
                 offset="0.4944"
                 style="stop-color:#FCCA25"
                 id="stop6728" />
            </linearGradient>
            <path
               style="fill:url(#SVGID_4_)"
               inkscape:connector-curvature="0"
               d="m 290.086,43.759 c -0.814,2.26 -1.568,3.901 -3.148,6.544 -2.378,3.978 -6.64,6.347 -11.544,6.886 -4.461,0.489 -10.494,-0.339 -15.355,-2.243 0.746,3.589 1.105,7.321 1.021,11.145 3.464,3.398 7.521,6.388 12.081,8.662 0.794,0.396 1.795,0.669 2.665,0.669 1.351,0 2.628,-0.512 3.769,-1.424 8.106,-6.481 13.182,-18.086 10.511,-30.239 z"
               id="path4961" />
            <linearGradient
               id="linearGradient6731"
               gradientUnits="userSpaceOnUse"
               x1="273.0928"
               y1="165.3398"
               x2="311.6514"
               y2="165.3398"
               gradientTransform="translate(-21.5659,-121.0361)">
              <stop
                 offset="0.2921"
                 style="stop-color:#F4A656"
                 id="stop6733" />
              <stop
                 offset="1"
                 style="stop-color:#E95A2F"
                 id="stop6735" />
            </linearGradient>
            <path
               style="fill:url(#SVGID_5_)"
               inkscape:connector-curvature="0"
               d="m 251.527,33.93 c 3.61,6.164 6.591,13.283 8.02,18.891 0.179,0.702 0.344,1.411 0.491,2.125 4.861,1.904 10.895,2.732 15.355,2.243 4.904,-0.539 9.166,-2.908 11.544,-6.886 1.58,-2.643 2.334,-4.284 3.148,-6.544 -7.773,-14.397 -27.667,-14.284 -38.558,-9.829 z"
               id="path4968" />
            <linearGradient
               id="linearGradient6738"
               gradientUnits="userSpaceOnUse"
               x1="271.26859"
               y1="143.9473"
               x2="315.61929"
               y2="143.9473"
               gradientTransform="translate(-21.5659,-121.0361)">
              <stop
                 offset="0.0169"
                 style="stop-color:#F4A656"
                 id="stop6740" />
              <stop
                 offset="0.5393"
                 style="stop-color:#E95A2F"
                 id="stop6742" />
            </linearGradient>
            <path
               style="fill:url(#SVGID_6_)"
               inkscape:connector-curvature="0"
               d="M 291.098,7.777 C 290.32,6.133 288.986,4.25 287.472,3.33 c -2.935,-1.781 -6.637,-1.628 -10.271,0.106 -11.61,5.538 -23.772,15.465 -27.497,27.548 0.621,0.949 1.23,1.934 1.824,2.945 10.891,-4.455 30.784,-4.568 38.559,9.829 3.774,-10.479 6.466,-24.45 1.011,-35.981 z"
               id="path4975" />
            <linearGradient
               id="linearGradient6745"
               gradientUnits="userSpaceOnUse"
               x1="273.39651"
               y1="328.332"
               x2="262.50369"
               y2="332.733"
               gradientTransform="translate(-14.3418,-282.9668)">
              <stop
                 offset="0.0449"
                 style="stop-color:#3E5BA6"
                 id="stop6747" />
              <stop
                 offset="0.4719"
                 style="stop-color:#6D7CBC"
                 id="stop6749" />
              <stop
                 offset="0.532"
                 style="stop-color:#6373B6"
                 id="stop6751" />
              <stop
                 offset="0.6585"
                 style="stop-color:#4F66AD"
                 id="stop6753" />
              <stop
                 offset="0.7748"
                 style="stop-color:#435EA7"
                 id="stop6755" />
              <stop
                 offset="0.8708"
                 style="stop-color:#3E5BA6"
                 id="stop6757" />
              <stop
                 offset="1"
                 style="stop-color:#3E5BA6"
                 id="stop6759" />
            </linearGradient>
            <path
               style="clip-rule:evenodd;fill:url(#SVGID_7_);fill-rule:evenodd"
               inkscape:connector-curvature="0"
               d="m 245.589,31.621 c -0.155,-1.278 0.161,-2.434 1.006,-2.757 0.802,-0.309 1.811,0.206 2.495,1.202 4.696,6.841 8.719,15.925 10.457,22.754 1.077,4.232 1.612,8.684 1.512,13.27 -3.081,-3.152 -5.74,-6.655 -7.902,-10.375 -3.595,-6.194 -6.546,-15.791 -7.568,-24.094 z"
               id="path4992" />
          </g>
          <path
             style="fill:#1b5ba1"
             inkscape:connector-curvature="0"
             d="m 285.125,77.903 0.689,0 c 0.6,0 0.787,0.209 0.787,0.485 0,0.568 -0.538,0.655 -0.877,0.655 l -0.6,0 0,-1.14 z m 0,2.086 0.728,0 0.725,1.685 1.285,0 -0.845,-2.02 c 0.231,-0.1 0.845,-0.363 0.845,-1.247 0,-1.386 -1.466,-1.386 -1.739,-1.386 l -2.219,0 0,4.652 1.221,0 0,-1.684 z m -3.732,-0.631 c 0,2.497 1.909,4.463 4.401,4.463 2.485,0 4.394,-1.966 4.394,-4.463 0,-2.571 -1.951,-4.487 -4.394,-4.487 -2.476,0 -4.401,1.916 -4.401,4.487 z m 1.016,0 c 0,-1.877 1.6,-3.446 3.385,-3.446 1.808,0 3.377,1.569 3.377,3.446 0,1.837 -1.569,3.431 -3.377,3.431 -1.81,0 -3.385,-1.594 -3.385,-3.431 z"
             id="path4994" />
        </g>
      </g>
    </g>
    <path
       style="clip-rule:evenodd;fill:#404040;fill-rule:evenodd;stroke-width:2.0132792"
       id="path6522"
       d="m 243.31639,768.3834 c -8.52184,-8.77683 -18.85328,-13.16423 -31.10278,-13.16423 -12.24951,0 -22.58095,4.3874 -31.42213,13.16423 -8.62828,8.88177 -13.10108,19.26502 -13.10108,31.57357 0,9.84643 3.08899,18.94414 9.05407,26.75832 -19.06617,13.48511 -29.93186,36.06995 -32.48861,67.7525 -0.31934,4.49436 -0.74513,7.3823 -1.27938,8.77481 -6.39087,13.16423 -16.19007,23.01066 -29.39761,29.54333 -4.79416,2.35314 -9.05407,3.95754 -13.42244,5.24309 l -15.870728,2.46413 21.090678,57.58317 6.49732,-1.60845 c 20.98424,-4.59931 38.13234,-11.98564 51.76767,-22.26194 8.52183,-6.20775 17.15011,-15.62432 26.20218,-27.93489 22.36805,11.23692 37.6021,26.00758 45.58969,43.88212 l 3.83412,6.74255 47.3993,-27.93488 -2.76964,-5.88889 c -11.60882,-26.33048 -27.8009,-47.5208 -48.25089,-63.68194 12.24951,-1.60845 26.52353,-7.06344 42.50071,-16.05419 l 6.06952,-3.64272 -20.44999,-47.19789 -7.3489,4.49638 c -10.33345,5.24511 -21.30357,7.38432 -33.02084,5.99383 9.58631,-2.46211 17.46945,-7.70722 23.64743,-15.62634 6.39087,-8.0281 9.37341,-17.23277 9.37341,-27.40009 0,-12.31056 -4.47281,-22.69381 -13.10108,-31.57558 z m 21.62291,105.10194 c -12.2495,6.20775 -22.90029,9.95743 -31.95436,11.13198 l -22.05071,-1.17455 -4.79215,-0.74872 c -4.04903,0 -6.49732,2.46009 -7.02956,7.3823 -0.31934,3.21285 0.85158,5.56599 3.30188,6.53065 l 7.3489,3.95754 c 5.75219,2.99894 11.07859,6.74458 16.40297,10.8111 17.15012,13.48511 30.67699,30.82283 41.22334,51.69428 l -21.94427,12.84536 c -10.75723,-19.47894 -29.18472,-34.5725 -54.85666,-45.70246 -0.74714,-0.85568 -2.13096,-1.17858 -3.40833,-1.17858 -1.91807,0 -3.62123,0.85972 -4.8986,2.14123 l -3.62323,4.7103 c -8.20049,11.23692 -15.55139,19.47895 -22.04871,24.72607 -10.97214,8.99075 -24.92681,15.62433 -41.75558,19.69287 L 104.7377,952.36982 c 24.39256,-6.53066 41.54066,-20.87145 51.87411,-42.59657 1.06448,-2.14527 1.91606,-6.74458 2.76764,-13.91497 1.27938,-15.62837 4.04903,-28.04387 8.62828,-37.03462 4.47482,-9.09771 11.18503,-16.16115 20.452,-21.40625 4.47481,3.10387 9.37341,4.92422 15.1256,6.42369 l 0.10644,1.60441 c 0.31935,2.99691 0.63869,5.13613 1.17093,6.63559 l 1.17092,3.42476 3.40833,1.17657 c 15.01915,4.92423 30.57054,3.74564 46.97351,-2.99692 z M 212.2116,771.48727 c 7.88314,0 14.38046,2.67604 19.91975,8.34899 5.75219,5.67295 8.41338,12.20158 8.41338,20.12071 0,7.92114 -2.6632,14.44977 -8.41338,20.01374 -5.53929,5.77991 -12.03661,8.45595 -19.91975,8.45595 -7.88114,0 -14.38047,-2.67604 -20.13065,-8.45595 -5.75218,-5.56599 -8.52183,-12.09462 -8.52183,-20.01374 0,-7.91913 2.76965,-14.44978 8.52183,-20.12071 5.75219,-5.67295 12.24951,-8.34899 20.13065,-8.34899 z"
       inkscape:connector-curvature="0" />
    <path
       style="clip-rule:evenodd;fill:#f9d817;fill-rule:evenodd;stroke-width:2.0132792"
       id="path6524"
       d="m 212.2116,828.42666 c 7.88314,0 14.38046,-2.67604 19.91975,-8.45595 5.75219,-5.56599 8.41338,-12.09462 8.41338,-20.01374 0,-7.91913 -2.6632,-14.44978 -8.41338,-20.12071 -5.53929,-5.67295 -12.03661,-8.34899 -19.91975,-8.34899 -7.88114,0 -14.38047,2.67604 -20.13065,8.34899 -5.75218,5.67295 -8.52183,12.20158 -8.52183,20.12071 0,7.92114 2.76965,14.44977 8.52183,20.01374 5.75219,5.78193 12.24951,8.45595 20.13065,8.45595 z"
       inkscape:connector-curvature="0" />
    <path
       style="clip-rule:evenodd;fill:#f9d817;fill-rule:evenodd;stroke-width:2.0132792"
       id="path6526"
       d="m 256.41747,853.68753 c -16.40297,6.74256 -31.95637,7.92114 -46.97351,2.99692 l -3.40833,-1.17657 -1.17092,-3.42476 c -0.53224,-1.49946 -0.85159,-3.63868 -1.17093,-6.63559 l -0.10645,-1.60441 c -5.75218,-1.49947 -10.65279,-3.31982 -15.12559,-6.4237 -9.26697,5.24511 -15.97718,12.30855 -20.452,21.40626 -4.57925,8.99075 -7.3489,21.40625 -8.62828,37.03461 -0.85158,7.1704 -1.70316,11.76971 -2.76764,13.91498 -10.33546,21.7231 -27.48557,36.06389 -51.87612,42.59455 l 10.11854,27.93489 c 16.82876,-4.06854 30.78344,-10.70212 41.75557,-19.69287 6.49732,-5.24712 13.84622,-13.48915 22.04871,-24.72607 l 3.62324,-4.7103 c 1.27737,-1.28151 2.98254,-2.14123 4.8986,-2.14123 1.27737,0 2.66319,0.3229 3.40833,1.17858 25.66993,11.13198 44.09742,26.22352 54.85666,45.70246 l 21.94427,-12.84536 c -10.54635,-20.87145 -24.07323,-38.21118 -41.22334,-51.69428 -5.32639,-4.06854 -10.65078,-7.81216 -16.40297,-10.8111 l -7.3489,-3.95754 c -2.4503,-0.96668 -3.62123,-3.31982 -3.30188,-6.53065 0.53224,-4.92221 2.98254,-7.3823 7.02956,-7.3823 l 4.79214,0.74872 22.05072,1.17455 c 9.05407,-1.17455 19.70486,-4.92221 31.95436,-11.13198 z"
       inkscape:connector-curvature="0" />
    <path
       d="m 273.63672,515.08518 c -2.89215,-3.1307 -6.50733,-4.81779 -10.8431,-4.81779 -4.57923,0 -8.19442,1.68709 -10.8431,4.81779 -2.89214,2.89215 -4.57923,6.50487 -4.57923,10.8431 0,4.33822 1.68709,7.95095 4.57923,10.84309 2.65114,3.13316 6.26387,4.81779 10.8431,4.81779 4.33577,0 7.95095,-1.68709 10.8431,-4.81779 2.65114,-2.89214 4.33822,-6.50487 4.33822,-10.84309 0.002,-4.33823 -1.68462,-7.95095 -4.33822,-10.8431 z m -25.78095,51.3258 v 81.92699 c 0,10.12006 4.81779,14.93785 14.94031,14.93785 9.87905,0 14.6993,-4.81779 14.6993,-14.93785 v -81.92699 c 0,-9.88151 -4.81779,-14.6993 -14.6993,-14.6993 -10.12252,0 -14.94031,4.81779 -14.94031,14.6993 z"
       style="fill:#bfbfbf"
       id="path4870"
       inkscape:connector-curvature="0" />
    <path
       d="m 335.08258,582.07186 c -5.7843,6.02285 -8.43544,15.42234 -8.43544,27.46558 0,9.16093 1.9281,16.86841 6.26633,21.92721 4.57677,5.78429 10.84309,8.43543 19.03506,8.43543 7.22791,0 13.25322,-3.1307 18.07346,-9.63558 l 5.06126,-6.26878 c 2.40767,-2.16665 5.29982,-2.89215 8.915,-2.89215 3.61519,0 6.50734,1.20507 8.915,3.13071 2.40767,2.17157 3.61519,4.8227 3.61519,7.71485 0,7.70994 -3.61519,14.93785 -11.32513,20.9607 -8.91499,6.74835 -19.9991,10.36107 -34.21638,10.36107 -17.58898,0 -31.32177,-5.29735 -40.9598,-15.17886 -8.67399,-9.39948 -13.25568,-22.16822 -13.25568,-38.55706 0,-17.34797 4.82024,-31.32423 14.45828,-41.92386 10.12006,-10.8431 23.85531,-15.90436 41.44675,-15.90436 12.0457,0 22.40923,2.65114 31.32423,8.43298 8.43544,5.54328 12.53019,12.04816 12.53019,19.27607 0,3.8562 -1.68709,7.22791 -4.57678,9.63804 -2.41012,1.92809 -5.54328,3.13316 -9.63804,3.13316 -2.65113,0 -5.54328,-0.72304 -7.47138,-2.41013 l -4.81779,-6.02285 c -4.57923,-6.02531 -10.60454,-9.15601 -18.07347,-9.15601 -6.99181,0.005 -12.53264,2.41258 -16.87086,7.47384 z"
       style="fill:#bfbfbf"
       id="path4872"
       inkscape:connector-curvature="0" />
    <path
       d="m 479.65803,584.48199 c 3.61519,5.78429 5.54329,13.25322 5.54329,22.65024 0,9.15602 -1.68955,16.38639 -5.30227,21.92967 -4.33823,7.70994 -10.36108,11.32266 -18.79651,10.84064 -8.43297,0 -14.45582,-3.61273 -18.79405,-11.08165 -3.37417,-5.7843 -4.82024,-13.01221 -4.82024,-21.68866 0,-9.39702 1.92809,-16.86595 6.02285,-22.65024 4.33822,-6.26632 9.8815,-9.63804 17.58898,-9.87905 8.43789,0 14.46074,3.1307 18.55795,9.87905 z m -57.58966,-19.27853 c -9.15601,10.12006 -13.97626,24.57834 -13.97626,43.13138 0,15.18132 3.61519,27.95251 11.32267,38.07257 7.95095,11.32267 19.51954,16.86349 34.45985,16.86349 13.73279,0 23.37082,-5.29735 29.39613,-15.17886 h 0.24101 v 39.75721 c 0,9.88151 4.82025,15.17886 14.94031,15.17886 9.63804,0 14.45583,-5.29735 14.45583,-15.17886 V 565.68794 c 0,-9.15847 -4.33823,-13.97626 -13.25323,-13.97626 -8.915,0 -13.25322,4.81779 -13.25322,13.97626 v 4.81779 h -0.47956 c -5.06126,-12.53019 -15.66335,-18.79651 -31.32423,-18.79651 -13.25323,0.003 -24.09386,4.33823 -32.5293,13.49424 z"
       style="fill:#bfbfbf"
       id="path4874"
       inkscape:connector-curvature="0" />
    <path
       d="m 113.40038,519.90297 c -5.29981,-1.20507 -9.63803,-0.72304 -14.214811,1.68708 -5.06126,3.13316 -7.953409,7.95341 -9.158471,14.6993 -1.205062,6.9869 0,13.73524 3.615186,20.48113 l 1.687087,2.40767 -5.784297,-1.9281 c -7.227917,-1.68709 -13.976257,-0.72304 -20.722147,2.89215 -6.9869,3.61518 -11.32512,8.67398 -14.21727,15.66334 -2.65114,6.74835 -2.40767,13.25322 0.96405,19.27607 1.44607,2.65114 3.61518,4.81779 5.54082,6.26387 2.89215,2.89214 6.50734,4.57923 10.8431,5.29981 l 1.68709,0.48202 -3.61519,3.13316 c -3.37417,2.89215 -5.29981,6.50488 -6.50487,10.12007 -1.20506,4.33822 -0.72304,8.67398 1.68708,12.77119 1.20507,1.92564 2.40767,3.61273 4.33577,4.81779 1.9281,1.68709 4.33822,2.89215 7.22791,3.1307 5.30227,1.20507 10.843098,1.20507 16.865948,-0.72549 l -4.338222,7.22791 -1.205062,3.13562 c -2.407664,7.70994 -1.687084,14.45828 1.928099,21.44272 1.687086,2.65114 3.615185,5.06372 5.543285,7.22792 2.892148,2.65113 6.504875,4.33822 10.843095,5.54328 7.22791,1.92564 14.45829,1.68709 21.44519,-1.92564 6.74834,-3.61764 11.08411,-9.39948 13.25322,-16.62985 l 0.24101,-1.44608 c 4.57677,5.06372 8.915,8.43544 13.73524,9.6405 4.81779,1.44607 9.63804,1.20506 13.97626,-1.68709 4.09721,-2.41012 6.9869,-6.50733 8.43297,-11.56613 1.20507,-5.30228 1.20507,-10.60209 0,-16.62494 2.40767,1.68709 4.81779,2.88723 7.70994,3.61273 7.70994,2.41012 14.45583,2.16665 21.20417,-1.44608 6.50734,-3.61272 10.8431,-9.39948 13.01221,-16.86841 1.9281,-7.22791 1.44608,-14.21235 -2.16911,-20.9607 l -1.20506,-1.92809 c -1.9281,-2.89215 -3.85374,-5.7843 -6.74589,-7.70994 -2.40766,-1.68709 -5.29981,-2.89215 -7.95095,-4.09721 7.47139,-3.61519 12.7712,-8.67399 15.18132,-15.18132 1.68709,-5.30228 1.20506,-9.63804 -1.20506,-13.97626 v -0.48203 c -2.88969,-4.82024 -6.74589,-7.9534 -12.76874,-9.63803 -3.61518,-0.72304 -7.71239,-0.72304 -11.32512,-0.48203 l -7.95095,1.68709 2.65114,-6.02285 c 2.41012,-7.70994 1.68708,-15.18132 -2.41013,-22.16822 l -0.72303,-1.20506 c -3.61519,-6.02531 -8.915,-9.63804 -16.14291,-11.56614 -7.46893,-1.9281 -14.45583,-1.20506 -21.20417,2.41013 -6.74589,3.61272 -11.56614,9.15601 -13.73279,16.38638 v 0.48202 l -0.24101,1.68709 -0.96405,-1.68709 -2.41012,-4.33822 c -3.85866,-6.01547 -8.67891,-9.63066 -14.70176,-11.31774 z m 61.44586,14.45828 c 1.20506,2.40766 1.9281,5.29981 1.9281,8.43297 l -0.72304,5.29982 c -0.96405,2.65113 -2.16911,5.06126 -3.61519,7.22791 l -21.68619,26.5089 c -2.16911,-1.68708 -4.57923,-2.89215 -6.98936,-4.09721 l -2.40766,-27.22702 -0.24101,-9.63804 0.24101,-2.40766 c 1.20506,-4.81779 4.57677,-8.43297 8.915,-10.8431 4.33576,-2.40766 9.156,-2.89215 13.73278,-1.20506 5.06126,1.2026 8.67645,3.85374 10.84556,7.94849 z m -74.69908,4.82025 c 0.24101,-4.33823 1.9281,-7.22791 4.81779,-8.915 1.44607,-1.20506 3.61518,-1.20506 5.54082,-0.24101 4.33823,1.20506 7.95095,4.33822 10.8431,10.36107 1.20506,2.41012 2.41012,4.81779 2.89215,7.70994 l 4.81779,28.43454 -3.61519,1.20506 -21.44518,-23.37328 -1.20506,-2.40767 c -1.92318,-4.34068 -3.128246,-8.43543 -2.64622,-12.77365 z m -13.01221,28.19107 6.507334,2.65113 21.204176,15.42234 c -1.9281,2.40766 -3.13071,4.81779 -3.85374,7.22791 l -34.698413,4.33822 -2.41012,-0.48202 c -4.33822,-0.72304 -7.22791,-2.65114 -9.15601,-6.26387 -1.9281,-3.61518 -1.9281,-7.22791 -0.48203,-10.84309 1.68709,-4.57924 4.81779,-8.19442 9.39703,-10.12006 4.33576,-2.41259 8.67153,-3.13562 13.491773,-1.93056 z m 22.89126,39.27518 1.68708,4.82025 0.72304,1.68708 c -3.61518,3.13071 -6.26632,6.02285 -9.15601,8.67399 l -7.230371,6.02531 -1.928099,1.20506 c -4.579236,2.16665 -8.432973,2.89215 -12.530183,2.40767 -3.61519,-0.24102 -6.50734,-1.44608 -7.7124,-3.61273 l -0.72304,-2.65114 0.48203,-2.16665 c 1.20506,-3.61764 4.33822,-7.22791 9.88151,-9.88151 2.88969,-1.20506 5.29981,-2.41012 7.227909,-2.89215 z m 75.17864,-39.03417 c 4.33822,-1.9281 8.43298,-2.41012 12.7712,-1.9281 4.09721,0.48203 6.98936,2.40767 8.43297,5.29981 l 0.96405,3.13071 -0.48202,2.41012 c -1.68709,4.33822 -5.30228,7.70994 -11.32513,10.36107 -2.40766,1.20507 -5.0588,1.68709 -7.95095,2.16666 l -29.63714,3.61518 -0.48202,-1.68709 -0.48203,-0.72057 0.96405,-1.20507 24.33733,-20.24012 z m -61.4434,22.89126 c 2.88969,-2.65114 6.74589,-4.33577 11.32513,-4.33577 4.33822,0 8.43297,1.68709 11.08411,4.33577 3.37417,3.37417 4.82024,6.98936 4.82024,11.32512 0,4.33576 -1.44607,8.43297 -4.82024,11.32512 -3.13317,3.13071 -6.74589,4.81779 -11.08411,4.81779 -4.57924,0 -8.43544,-1.68708 -11.32513,-4.81779 -3.13316,-2.89215 -4.81778,-6.98936 -4.81778,-11.32512 0,-4.33576 1.68462,-7.95095 4.81778,-11.32512 z m 5.54083,34.93942 c 0.48202,8.19442 1.20506,16.8684 2.41012,26.26543 v 9.64049 l -0.24101,2.41013 c -1.68709,4.3333 -4.57923,7.94849 -8.915,9.87658 -4.33576,2.41013 -8.915,2.89215 -13.25322,1.68709 -4.81779,-1.20014 -8.43297,-4.09229 -10.361073,-7.94849 -1.205062,-2.41012 -2.169111,-5.30227 -2.169111,-8.19442 l 1.205062,-5.53837 c 0.482024,-2.41012 1.687086,-4.8227 3.615182,-6.74834 l 20.24013,-24.09878 c 2.41012,1.2026 4.81778,2.40766 7.46892,2.64868 z m 18.55549,-3.13316 10.12006,10.36107 6.26386,7.70994 1.20506,2.41012 c 2.16912,4.09721 3.37418,7.95341 2.89215,12.53264 -0.48202,4.33823 -1.9281,7.46893 -4.81779,8.67399 -1.68708,1.20506 -3.61518,1.20506 -5.54082,0.96159 -4.57924,-1.20014 -8.19442,-4.81779 -10.8431,-10.60209 l -2.89214,-7.94849 -3.61519,-20.96561 4.09721,-1.44608 z m 10.8431,-14.94031 27.22948,-2.40767 9.63803,-0.24101 2.41013,0.24101 c 3.61518,1.20506 6.98936,3.37418 8.915,6.9869 2.40766,2.65114 3.61272,6.26386 3.61272,10.36108 l -0.72058,4.81778 c -1.20506,4.82271 -4.09721,8.43544 -8.19442,10.36108 -4.33822,2.41012 -8.67398,2.89215 -13.49423,1.20506 -2.89215,-0.72058 -4.81779,-1.92564 -6.50733,-3.85128 l -25.30139,-20.96562 1.68709,-3.61273 z"
       style="fill:#404040"
       id="path4876"
       inkscape:connector-curvature="0" />
    <path
       d="m 174.84624,534.36125 c 1.20506,2.40766 1.9281,5.29981 1.9281,8.43297 l -0.72304,5.29982 c -0.96405,2.65113 -2.16911,5.06126 -3.61519,7.22791 l -21.68619,26.5089 c -2.16911,-1.68708 -4.57923,-2.89215 -6.98936,-4.09721 l -2.40766,-27.22702 -0.24101,-9.63804 0.24101,-2.40766 c 1.20506,-4.81779 4.57677,-8.43297 8.915,-10.8431 4.33576,-2.40766 9.156,-2.89215 13.73278,-1.20506 5.06126,1.2026 8.67645,3.85374 10.84556,7.94849 z m -74.69908,4.82025 c 0.24101,-4.33823 1.9281,-7.22791 4.81779,-8.915 1.44607,-1.20506 3.61518,-1.20506 5.54082,-0.24101 4.33823,1.20506 7.95095,4.33822 10.8431,10.36107 1.20506,2.41012 2.41012,4.81779 2.89215,7.70994 l 4.81779,28.43454 -3.61519,1.20506 -21.44518,-23.37328 -1.20506,-2.40767 c -1.92318,-4.34068 -3.128246,-8.43543 -2.64622,-12.77365 z m -13.01221,28.19107 6.507334,2.65113 21.204176,15.42234 c -1.9281,2.40766 -3.13071,4.81779 -3.85374,7.22791 l -34.698413,4.33822 -2.41012,-0.48202 c -4.33822,-0.72304 -7.22791,-2.65114 -9.15601,-6.26387 -1.9281,-3.61518 -1.9281,-7.22791 -0.48203,-10.84309 1.68709,-4.57924 4.81779,-8.19442 9.39703,-10.12006 4.33576,-2.41259 8.67153,-3.13562 13.491773,-1.93056 z m 98.0699,0.24101 c 4.33822,-1.9281 8.43298,-2.41012 12.7712,-1.9281 4.09721,0.48203 6.98936,2.40767 8.43297,5.29981 l 0.96405,3.13071 -0.48202,2.41012 c -1.68709,4.33822 -5.30228,7.70994 -11.32513,10.36107 -2.40766,1.20507 -5.0588,1.68709 -7.95095,2.16666 l -29.63714,3.61518 -0.48202,-1.68709 -0.48203,-0.72057 0.96405,-1.20507 24.33733,-20.24012 z m -55.90257,57.83068 c 0.48202,8.19442 1.20506,16.8684 2.41012,26.26543 v 9.64049 l -0.24101,2.41013 c -1.68709,4.3333 -4.57923,7.94849 -8.915,9.87658 -4.33576,2.41013 -8.915,2.89215 -13.25322,1.68709 -4.81779,-1.20014 -8.43297,-4.09229 -10.361073,-7.94849 -1.205062,-2.41012 -2.169111,-5.30227 -2.169111,-8.19442 l 1.205062,-5.53837 c 0.482024,-2.41012 1.687086,-4.8227 3.615182,-6.74834 l 20.24013,-24.09878 c 2.41012,1.2026 4.81778,2.40766 7.46892,2.64868 z m 18.55549,-3.13316 10.12006,10.36107 6.26386,7.70994 1.20506,2.41012 c 2.16912,4.09721 3.37418,7.95341 2.89215,12.53264 -0.48202,4.33823 -1.9281,7.46893 -4.81779,8.67399 -1.68708,1.20506 -3.61518,1.20506 -5.54082,0.96159 -4.57924,-1.20014 -8.19442,-4.81779 -10.8431,-10.60209 l -2.89214,-7.94849 -3.61519,-20.96561 4.09721,-1.44608 z m 10.8431,-14.94031 27.22948,-2.40767 9.63803,-0.24101 2.41013,0.24101 c 3.61518,1.20506 6.98936,3.37417 8.915,6.9869 2.40766,2.65114 3.61272,6.26386 3.61272,10.36108 l -0.72058,4.81778 c -1.20506,4.82271 -4.09721,8.43544 -8.19442,10.36108 -4.33822,2.41012 -8.67398,2.89215 -13.49423,1.20506 -2.89215,-0.72058 -4.81779,-1.92564 -6.50733,-3.85128 l -25.30139,-20.96562 1.68709,-3.61273 z"
       style="fill:#48f600"
       id="path4878"
       inkscape:connector-curvature="0" />
    <path
       d="m 110.02621,606.64775 1.68708,4.82025 0.72304,1.68708 c -3.61518,3.13071 -6.26632,6.02285 -9.15601,8.67399 l -7.230371,6.02531 -1.928099,1.20506 c -4.579236,2.16665 -8.432973,2.89215 -12.530183,2.40767 -3.61519,-0.24102 -6.50734,-1.44608 -7.7124,-3.61273 l -0.72304,-2.65114 0.48203,-2.16665 c 1.20506,-3.61764 4.33822,-7.22791 9.88151,-9.88151 2.88969,-1.20506 5.29981,-2.41012 7.227909,-2.89215 z"
       style="fill:#ff001c"
       id="path4880"
       inkscape:connector-curvature="0" />
    <path
       d="m 123.76145,590.50484 c 2.88969,-2.65114 6.74589,-4.33577 11.32513,-4.33577 4.33822,0 8.43297,1.68709 11.08411,4.33577 3.37417,3.37417 4.82024,6.98936 4.82024,11.32512 0,4.33576 -1.44607,8.43297 -4.82024,11.32512 -3.13317,3.13071 -6.74589,4.81779 -11.08411,4.81779 -4.57924,0 -8.43544,-1.68708 -11.32513,-4.81779 -3.13316,-2.89215 -4.81778,-6.98936 -4.81778,-11.32512 0,-4.33576 1.68462,-7.95095 4.81778,-11.32512 z"
       style="fill:#fdfb12"
       id="path4882"
       inkscape:connector-curvature="0" />
  </g>
</svg>
