<?xml version="1.0" encoding="UTF-8" standalone="no"?>
<svg
   xmlns:dc="http://purl.org/dc/elements/1.1/"
   xmlns:cc="http://creativecommons.org/ns#"
   xmlns:rdf="http://www.w3.org/1999/02/22-rdf-syntax-ns#"
   xmlns:svg="http://www.w3.org/2000/svg"
   xmlns="http://www.w3.org/2000/svg"
   xmlns:sodipodi="http://sodipodi.sourceforge.net/DTD/sodipodi-0.dtd"
   xmlns:inkscape="http://www.inkscape.org/namespaces/inkscape"
   viewBox="0 0 606 80"
   height="80"
   width="606"
   xml:space="preserve"
   id="svg2"
   version="1.1"
   sodipodi:docname="logo-EFF.svg"
   inkscape:version="0.92.2 (5c3e80d, 2017-08-06)"><metadata
     id="metadata87"><rdf:RDF><cc:Work
         rdf:about=""><dc:format>image/svg+xml</dc:format><dc:type
           rdf:resource="http://purl.org/dc/dcmitype/StillImage" /><dc:title>EFF-logo-name-url</dc:title></cc:Work></rdf:RDF></metadata><defs
     id="defs85" /><sodipodi:namedview
     pagecolor="#000000"
     bordercolor="#666666"
     borderopacity="1"
     objecttolerance="10"
     gridtolerance="10"
     guidetolerance="10"
     inkscape:pageopacity="0"
     inkscape:pageshadow="2"
     inkscape:window-width="1920"
     inkscape:window-height="1020"
     id="namedview83"
     showgrid="false"
     inkscape:zoom="0.785"
     inkscape:cx="134.92621"
     inkscape:cy="84.357443"
     inkscape:window-x="1442"
     inkscape:window-y="24"
     inkscape:window-maximized="0"
     inkscape:current-layer="svg2"
     fit-margin-top="0"
     fit-margin-left="0"
     fit-margin-right="0"
     fit-margin-bottom="0" /><title
     id="title4821">EFF-logo-name-url</title><g
     transform="matrix(1.4643252,0,0,-1.4643252,24.840813,56.509297)"
     id="g20"><path
       inkscape:connector-curvature="0"
       id="path22"
       style="fill:none;stroke:#ffffff;stroke-width:4.44399977;stroke-linecap:butt;stroke-linejoin:miter;stroke-miterlimit:4;stroke-dasharray:none;stroke-opacity:1"
       d="M 0,0 V 9.213 H 9.291 C 9.53,5.922 10.41,2.814 11.805,0 Z M 0,22.115 H 11.805 C 10.673,19.839 9.877,17.357 9.488,14.741 H 0 Z m 34.096,13.819 c -7.368,0 -13.984,-3.201 -18.539,-8.294 H -14.742 V -5.527 h 30.299 c 4.555,-5.091 11.171,-8.293 18.539,-8.293 13.741,0 24.879,11.135 24.879,24.877 0,13.742 -11.138,24.877 -24.879,24.877 z" /></g><g
     transform="matrix(1.4643252,0,0,-1.4643252,38.335155,40.318106)"
     id="g24"><path
       inkscape:connector-curvature="0"
       id="path26"
       style="fill:#ed1c24;fill-opacity:1;fill-rule:evenodd;stroke:none"
       d="M 0,0 C 0,13.742 11.141,24.877 24.88,24.877 38.622,24.877 49.76,13.742 49.76,0 49.76,-13.742 38.622,-24.877 24.88,-24.877 11.141,-24.877 0,-13.742 0,0" /></g><g
     transform="matrix(1.4643252,0,0,-1.4643252,3.2535835,16.035055)"
     id="g28"><path
       inkscape:connector-curvature="0"
       id="path30"
       style="opacity:1;fill:#110b00;fill-opacity:1;fill-rule:evenodd;stroke:none"
       d="M 0,0 H 41.466 V -5.525 H 14.742 v -7.374 h 25.8 v -5.528 h -25.8 v -9.213 h 26.724 v -5.527 H 0 Z" /></g><g
     transform="matrix(1.4643252,0,0,-1.4643252,72.068957,16.035055)"
     id="g32"><path
       inkscape:connector-curvature="0"
       id="path34"
       style="fill:#ffffff;fill-opacity:1;fill-rule:evenodd;stroke:none"
       d="m 0,0 v -14.74 h 2.763 v 5.531 h 1.846 v 2.762 H 2.763 v 3.688 H 5.526 V 0 Z" /></g><g
     transform="matrix(1.4643252,0,0,-1.4643252,72.068957,43.018615)"
     id="g36"><path
       inkscape:connector-curvature="0"
       id="path38"
       style="fill:#ffffff;fill-opacity:1;fill-rule:evenodd;stroke:none"
       d="m 0,0 v -14.74 h 2.763 v 5.527 h 1.846 v 2.766 H 2.763 v 3.686 H 5.526 V 0 Z" /></g><g
     id="g1178"
     transform="translate(-44.759083,-23.597711)"><g
       style="fill:#ffffff;fill-opacity:1"
       id="g40"
       transform="matrix(1.4643252,0,0,-1.4643252,493.9732,50.778331)"><path
         d="M 0,0 H 7.66 V -2.421 H 2.57 V -7.862 H 7.006 V -10.28 H 2.57 v -7.659 H 0 Z"
         style="fill:#ffffff;fill-opacity:1;fill-rule:nonzero;stroke:none"
         id="path42"
         inkscape:connector-curvature="0" /></g><g
       style="fill:#ffffff;fill-opacity:1"
       id="g44"
       transform="matrix(1.4643252,0,0,-1.4643252,511.53661,70.851301)"><path
         d="m 0,0 c 0,-1.234 0.807,-1.814 1.738,-1.814 0.934,0 1.741,0.58 1.741,1.814 v 9.474 c 0,1.235 -0.807,1.813 -1.741,1.813 C 0.807,11.287 0,10.709 0,9.474 Z m -2.568,9.474 c 0,2.922 2.216,4.383 4.306,4.383 2.092,0 4.311,-1.461 4.311,-4.383 L 6.049,0 c 0,-2.922 -2.219,-4.385 -4.311,-4.385 -2.09,0 -4.306,1.463 -4.306,4.385 z"
         style="fill:#ffffff;fill-opacity:1;fill-rule:nonzero;stroke:none"
         id="path46"
         inkscape:connector-curvature="0" /></g><g
       style="fill:#ffffff;fill-opacity:1"
       id="g48"
       transform="matrix(1.4643252,0,0,-1.4643252,538.10328,71.145923)"><path
         d="m 0,0 c 0,-2.344 -1.865,-4.184 -4.158,-4.184 -2.293,0 -4.158,1.84 -4.158,4.184 v 13.909 h 2.57 V 0.252 c 0,-1.26 0.682,-1.865 1.588,-1.865 0.906,0 1.588,0.605 1.588,1.865 V 13.909 H 0 Z"
         style="fill:#ffffff;fill-opacity:1;fill-rule:nonzero;stroke:none"
         id="path50"
         inkscape:connector-curvature="0" /></g><g
       style="fill:#ffffff;fill-opacity:1"
       id="g52"
       transform="matrix(1.4643252,0,0,-1.4643252,543.70886,50.778331)"><path
         d="M 0,0 H 2.471 L 6.35,-10.81 H 6.4 V 0 H 8.971 V -17.939 H 6.553 L 2.623,-7.155 H 2.57 V -17.939 H 0 Z"
         style="fill:#ffffff;fill-opacity:1;fill-rule:nonzero;stroke:none"
         id="path54"
         inkscape:connector-curvature="0" /></g><g
       style="fill:#ffffff;fill-opacity:1"
       id="g56"
       transform="matrix(1.4643252,0,0,-1.4643252,566.21715,73.508172)"><path
         d="m 0,0 h 1.182 c 1.437,0 1.992,0.706 1.992,2.243 v 8.642 c 0,1.411 -0.479,2.217 -1.992,2.217 H 0 Z m -2.57,15.522 h 3.804 c 2.897,0 4.51,-1.738 4.51,-4.637 V 2.496 c 0,-3.328 -1.715,-4.913 -4.736,-4.913 H -2.57 Z"
         style="fill:#ffffff;fill-opacity:1;fill-rule:nonzero;stroke:none"
         id="path58"
         inkscape:connector-curvature="0" /></g><g
       style="fill:#ffffff;fill-opacity:1"
       id="g60"
       transform="matrix(1.4643252,0,0,-1.4643252,585.69663,58.344499)"><path
         d="M 0,0 H -0.051 L -1.309,-6.5 H 1.26 Z m -1.084,5.167 h 2.143 l 4.005,-17.939 h -2.57 l -0.756,3.854 h -3.502 l -0.756,-3.854 h -2.57 z"
         style="fill:#ffffff;fill-opacity:1;fill-rule:nonzero;stroke:none"
         id="path62"
         inkscape:connector-curvature="0" /></g><g
       style="fill:#ffffff;fill-opacity:1"
       id="g64"
       transform="matrix(1.4643252,0,0,-1.4643252,597.61711,54.323316)"><path
         d="M 0,0 H -2.973 V 2.421 H 5.543 V 0 H 2.568 V -15.519 H 0 Z"
         style="fill:#ffffff;fill-opacity:1;fill-rule:nonzero;stroke:none"
         id="path66"
         inkscape:connector-curvature="0" /></g><path
       d="m 609.71844,50.777892 h 3.76332 v 26.268529 h -3.76332 z"
       style="fill:#ffffff;fill-opacity:1;fill-rule:nonzero;stroke:none;stroke-width:1.46432519"
       id="path68"
       inkscape:connector-curvature="0" /><g
       style="fill:#ffffff;fill-opacity:1"
       id="g70"
       transform="matrix(1.4643252,0,0,-1.4643252,622.88829,70.851301)"><path
         d="m 0,0 c 0,-1.234 0.807,-1.814 1.738,-1.814 0.934,0 1.739,0.58 1.739,1.814 v 9.474 c 0,1.235 -0.805,1.813 -1.739,1.813 C 0.807,11.287 0,10.709 0,9.474 Z m -2.568,9.474 c 0,2.922 2.216,4.383 4.306,4.383 2.092,0 4.309,-1.461 4.309,-4.383 L 6.047,0 c 0,-2.922 -2.217,-4.385 -4.309,-4.385 -2.09,0 -4.306,1.463 -4.306,4.385 z"
         style="fill:#ffffff;fill-opacity:1;fill-rule:nonzero;stroke:none"
         id="path72"
         inkscape:connector-curvature="0" /></g><g
       style="fill:#ffffff;fill-opacity:1"
       id="g74"
       transform="matrix(1.4643252,0,0,-1.4643252,637.13105,50.778331)"><path
         d="M 0,0 H 2.469 L 6.35,-10.81 H 6.398 V 0 H 8.969 V -17.939 H 6.551 L 2.621,-7.155 H 2.57 V -17.939 H 0 Z"
         style="fill:#ffffff;fill-opacity:1;fill-rule:nonzero;stroke:none"
         id="path76"
         inkscape:connector-curvature="0" /></g><g
       style="fill:#ffffff;fill-opacity:1"
       id="g78"
       transform="matrix(1.4643252,0,0,-1.4643252,187.8957,50.778331)"><path
         d="M 0,0 H 7.66 V -2.421 H 2.57 v -5.265 h 4.435 v -2.418 H 2.57 v -5.266 h 5.09 v -2.569 H 0 Z"
         style="fill:#ffffff;fill-opacity:1;fill-rule:nonzero;stroke:none"
         id="path80"
         inkscape:connector-curvature="0" /></g><g
       style="fill:#ffffff;fill-opacity:1"
       id="g82"
       transform="matrix(1.4643252,0,0,-1.4643252,203.7602,50.778331)"><path
         d="m 0,0 h 2.57 v -15.37 h 5.09 v -2.569 H 0 Z"
         style="fill:#ffffff;fill-opacity:1;fill-rule:nonzero;stroke:none"
         id="path84"
         inkscape:connector-curvature="0" /></g><g
       style="fill:#ffffff;fill-opacity:1"
       id="g86"
       transform="matrix(1.4643252,0,0,-1.4643252,219.62602,50.778331)"><path
         d="m 0,0 h 7.659 v -2.421 h -5.09 v -5.265 h 4.436 v -2.418 H 2.569 v -5.266 h 5.09 v -2.569 H 0 Z"
         style="fill:#ffffff;fill-opacity:1;fill-rule:nonzero;stroke:none"
         id="path88"
         inkscape:connector-curvature="0" /></g><g
       style="fill:#ffffff;fill-opacity:1"
       id="g90"
       transform="matrix(1.4643252,0,0,-1.4643252,247.44468,71.18297)"><path
         d="m 0,0 c 0,-2.217 -1.789,-4.158 -4.082,-4.158 -1.965,0 -4.233,0.957 -4.233,4.234 v 9.877 c 0,2.342 1.689,4.131 4.183,4.131 C -1.764,14.084 0,12.295 0,9.802 V 8.793 H -2.57 V 9.65 c 0,1.008 -0.604,1.864 -1.587,1.864 -1.285,0 -1.588,-0.881 -1.588,-2.09 V 0.252 c 0,-1.033 0.403,-1.84 1.562,-1.84 0.705,0 1.613,0.403 1.613,1.815 V 1.108 H 0 Z"
         style="fill:#ffffff;fill-opacity:1;fill-rule:nonzero;stroke:none"
         id="path92"
         inkscape:connector-curvature="0" /></g><g
       style="fill:#ffffff;fill-opacity:1"
       id="g94"
       transform="matrix(1.4643252,0,0,-1.4643252,254.08569,54.323316)"><path
         d="M 0,0 H -2.974 V 2.421 H 5.543 V 0 H 2.57 V -15.519 H 0 Z"
         style="fill:#ffffff;fill-opacity:1;fill-rule:nonzero;stroke:none"
         id="path96"
         inkscape:connector-curvature="0" /></g><g
       style="fill:#ffffff;fill-opacity:1"
       id="g98"
       transform="matrix(1.4643252,0,0,-1.4643252,269.83861,62.51153)"><path
         d="m 0,0 h 1.462 c 1.789,0 2.066,1.008 2.066,2.797 0,1.811 -0.302,2.795 -2.193,2.795 L 0,5.592 Z m -2.569,8.013 h 4.132 c 3.049,0 4.535,-1.789 4.535,-5.267 0,-2.066 -0.579,-3.578 -2.217,-4.484 L 6.652,-9.927 H 3.931 L 1.538,-2.268 H 0 v -7.659 h -2.569 z"
         style="fill:#ffffff;fill-opacity:1;fill-rule:nonzero;stroke:none"
         id="path100"
         inkscape:connector-curvature="0" /></g><g
       style="fill:#ffffff;fill-opacity:1"
       id="g102"
       transform="matrix(1.4643252,0,0,-1.4643252,287.54845,70.851301)"><path
         d="m 0,0 c 0,-1.234 0.807,-1.814 1.739,-1.814 0.933,0 1.739,0.58 1.739,1.814 v 9.474 c 0,1.235 -0.806,1.813 -1.739,1.813 C 0.807,11.287 0,10.709 0,9.474 Z m -2.57,9.474 c 0,2.922 2.217,4.383 4.309,4.383 2.092,0 4.308,-1.461 4.308,-4.383 L 6.047,0 c 0,-2.922 -2.216,-4.385 -4.308,-4.385 -2.092,0 -4.309,1.463 -4.309,4.385 z"
         style="fill:#ffffff;fill-opacity:1;fill-rule:nonzero;stroke:none"
         id="path104"
         inkscape:connector-curvature="0" /></g><g
       style="fill:#ffffff;fill-opacity:1"
       id="g106"
       transform="matrix(1.4643252,0,0,-1.4643252,301.78989,50.778331)"><path
         d="m 0,0 h 2.469 l 3.88,-10.81 h 0.05 V 0 H 8.971 V -17.939 H 6.552 L 2.621,-7.155 H 2.571 V -17.939 H 0 Z"
         style="fill:#ffffff;fill-opacity:1;fill-rule:nonzero;stroke:none"
         id="path108"
         inkscape:connector-curvature="0" /></g><path
       d="m 320.64308,50.777892 h 3.76331 v 26.268529 h -3.76331 z"
       style="fill:#ffffff;fill-opacity:1;fill-rule:nonzero;stroke:none;stroke-width:1.46432519"
       id="path110"
       inkscape:connector-curvature="0" /><g
       style="fill:#ffffff;fill-opacity:1"
       id="g112"
       transform="matrix(1.4643252,0,0,-1.4643252,342.22752,71.18297)"><path
         d="m 0,0 c 0,-2.217 -1.789,-4.158 -4.083,-4.158 -1.965,0 -4.231,0.957 -4.231,4.234 v 9.877 c 0,2.342 1.688,4.131 4.181,4.131 C -1.764,14.084 0,12.295 0,9.802 V 8.793 H -2.57 V 9.65 c 0,1.008 -0.605,1.864 -1.588,1.864 -1.284,0 -1.587,-0.881 -1.587,-2.09 V 0.252 c 0,-1.033 0.404,-1.84 1.561,-1.84 0.706,0 1.614,0.403 1.614,1.815 V 1.108 H 0 Z"
         style="fill:#ffffff;fill-opacity:1;fill-rule:nonzero;stroke:none"
         id="path114"
         inkscape:connector-curvature="0" /></g><g
       style="fill:#ffffff;fill-opacity:1"
       id="g116"
       transform="matrix(1.4643252,0,0,-1.4643252,356.57908,50.778331)"><path
         d="M 0,0 H 7.66 V -2.421 H 2.569 V -7.862 H 7.004 V -10.28 H 2.569 v -7.659 H 0 Z"
         style="fill:#ffffff;fill-opacity:1;fill-rule:nonzero;stroke:none"
         id="path118"
         inkscape:connector-curvature="0" /></g><g
       style="fill:#ffffff;fill-opacity:1"
       id="g120"
       transform="matrix(1.4643252,0,0,-1.4643252,376.20734,62.51153)"><path
         d="m 0,0 h 1.461 c 1.79,0 2.066,1.008 2.066,2.797 0,1.811 -0.301,2.795 -2.193,2.795 L 0,5.592 Z m -2.569,8.013 h 4.131 c 3.049,0 4.535,-1.789 4.535,-5.267 0,-2.066 -0.578,-3.578 -2.217,-4.484 L 6.651,-9.927 H 3.93 L 1.537,-2.268 H 0 v -7.659 h -2.569 z"
         style="fill:#ffffff;fill-opacity:1;fill-rule:nonzero;stroke:none"
         id="path122"
         inkscape:connector-curvature="0" /></g><g
       style="fill:#ffffff;fill-opacity:1"
       id="g124"
       transform="matrix(1.4643252,0,0,-1.4643252,393.91718,70.851301)"><path
         d="m 0,0 c 0,-1.234 0.806,-1.814 1.738,-1.814 0.932,0 1.738,0.58 1.738,1.814 v 9.474 c 0,1.235 -0.806,1.813 -1.738,1.813 C 0.806,11.287 0,10.709 0,9.474 Z m -2.569,9.474 c 0,2.922 2.216,4.383 4.307,4.383 2.092,0 4.308,-1.461 4.308,-4.383 V 0 c 0,-2.922 -2.216,-4.385 -4.308,-4.385 -2.091,0 -4.307,1.463 -4.307,4.385 z"
         style="fill:#ffffff;fill-opacity:1;fill-rule:nonzero;stroke:none"
         id="path126"
         inkscape:connector-curvature="0" /></g><g
       style="fill:#ffffff;fill-opacity:1"
       id="g128"
       transform="matrix(1.4643252,0,0,-1.4643252,408.15862,50.778331)"><path
         d="M 0,0 H 2.469 L 6.35,-10.81 H 6.4 V 0 H 8.969 V -17.939 H 6.551 L 2.621,-7.155 H 2.57 V -17.939 H 0 Z"
         style="fill:#ffffff;fill-opacity:1;fill-rule:nonzero;stroke:none"
         id="path130"
         inkscape:connector-curvature="0" /></g><g
       style="fill:#ffffff;fill-opacity:1"
       id="g132"
       transform="matrix(1.4643252,0,0,-1.4643252,429.37142,54.323316)"><path
         d="M 0,0 H -2.971 V 2.421 H 5.545 V 0 H 2.57 V -15.519 H 0 Z"
         style="fill:#ffffff;fill-opacity:1;fill-rule:nonzero;stroke:none"
         id="path134"
         inkscape:connector-curvature="0" /></g><path
       d="m 441.4748,50.777892 h 3.76039 v 26.268529 h -3.76039 z"
       style="fill:#ffffff;fill-opacity:1;fill-rule:nonzero;stroke:none;stroke-width:1.46432519"
       id="path136"
       inkscape:connector-curvature="0" /><g
       style="fill:#ffffff;fill-opacity:1"
       id="g138"
       transform="matrix(1.4643252,0,0,-1.4643252,451.10464,50.778331)"><path
         d="m 0,0 h 7.658 v -2.421 h -5.09 v -5.265 h 4.436 v -2.418 H 2.568 v -5.266 h 5.09 v -2.569 H 0 Z"
         style="fill:#ffffff;fill-opacity:1;fill-rule:nonzero;stroke:none"
         id="path140"
         inkscape:connector-curvature="0" /></g><g
       style="fill:#ffffff;fill-opacity:1"
       id="g142"
       transform="matrix(1.4643252,0,0,-1.4643252,470.73289,62.51153)"><path
         d="m 0,0 h 1.461 c 1.789,0 2.066,1.008 2.066,2.797 0,1.811 -0.302,2.795 -2.193,2.795 L 0,5.592 Z m -2.57,8.013 h 4.131 c 3.048,0 4.537,-1.789 4.537,-5.267 0,-2.066 -0.58,-3.578 -2.217,-4.484 L 6.652,-9.927 H 3.93 L 1.535,-2.268 H 0 v -7.659 h -2.57 z"
         style="fill:#ffffff;fill-opacity:1;fill-rule:nonzero;stroke:none"
         id="path144"
         inkscape:connector-curvature="0" /></g></g></svg>