<?xml version="1.0" encoding="UTF-8" standalone="no"?>
<!-- Generator: Adobe Illustrator 19.0.0, SVG Export Plug-In . SVG Version: 6.00 Build 0)  -->

<svg
   xmlns:dc="http://purl.org/dc/elements/1.1/"
   xmlns:cc="http://creativecommons.org/ns#"
   xmlns:rdf="http://www.w3.org/1999/02/22-rdf-syntax-ns#"
   xmlns:svg="http://www.w3.org/2000/svg"
   xmlns="http://www.w3.org/2000/svg"
   xmlns:sodipodi="http://sodipodi.sourceforge.net/DTD/sodipodi-0.dtd"
   xmlns:inkscape="http://www.inkscape.org/namespaces/inkscape"
   version="1.1"
   id="Ebene_1"
   x="0px"
   y="0px"
   viewBox="0 0 380.00001 380.00001"
   xml:space="preserve"
   inkscape:version="0.92.2 (5c3e80d, 2017-08-06)"
   sodipodi:docname="logo-briar-circle.svg"
   width="380"
   height="380"><metadata
     id="metadata61"><rdf:RDF><cc:Work
         rdf:about=""><dc:format>image/svg+xml</dc:format><dc:type
           rdf:resource="http://purl.org/dc/dcmitype/StillImage" /><dc:title></dc:title></cc:Work></rdf:RDF></metadata><defs
     id="defs59" /><sodipodi:namedview
     pagecolor="#000000"
     bordercolor="#666666"
     borderopacity="1"
     objecttolerance="10"
     gridtolerance="10"
     guidetolerance="10"
     inkscape:pageopacity="0"
     inkscape:pageshadow="2"
     inkscape:window-width="1920"
     inkscape:window-height="1021"
     id="namedview57"
     showgrid="false"
     inkscape:zoom="1.4333435"
     inkscape:cx="20.316099"
     inkscape:cy="138.87586"
     inkscape:window-x="1443"
     inkscape:window-y="23"
     inkscape:window-maximized="0"
     inkscape:current-layer="Ebene_1"
     fit-margin-top="25"
     fit-margin-left="25"
     fit-margin-right="25"
     fit-margin-bottom="25" /><style
     type="text/css"
     id="style3">
	.st0{fill:#FFFFFF;}
	.st1{display:none;fill:#87C214;}
	.st2{fill:#87C214;}
	.st3{display:none;fill:#FFFFFF;}
	.st4{fill:#95D220;}
	.st5{display:none;fill:#95D220;}
</style><g
     id="g864"
     transform="translate(25,25)"><circle
       r="165"
       class="st0"
       cx="165"
       cy="165"
       id="circle7"
       style="fill:#ffffff" /><g
       transform="translate(0.2999939,1.2000061)"
       id="g4214"><g
         id="g9"><g
           id="g11"><rect
             style="display:none;fill:#87c214"
             id="rect13"
             height="43.700001"
             width="43.700001"
             class="st1"
             y="93.800003"
             x="94" /><path
             style="fill:#87c214"
             inkscape:connector-curvature="0"
             id="path15"
             d="M 94,144.5 V 264 c 0,9.7 7.9,17.7 17.7,17.7 h 8.3 c 9.7,0 17.7,-8 17.7,-17.7 V 144.5 Z"
             class="st2" /><path
             style="fill:#87c214"
             inkscape:connector-curvature="0"
             id="path17"
             d="M 137.7,86.8 V 64.3 c 0,-9.7 -8,-17.7 -17.7,-17.7 h -8.3 C 102,46.6 94,54.6 94,64.3 v 22.5 z"
             class="st2" /></g><path
           style="display:none;fill:#ffffff"
           inkscape:connector-curvature="0"
           id="path19"
           d="m 120,46.7 c 9.7,0 17.7,8 17.7,17.7 V 264 c 0,9.7 -8,17.7 -17.7,17.7 h -8.3 C 102,281.7 94,273.7 94,264 V 64.3 c 0,-9.7 7.9,-17.7 17.7,-17.7 h 8.3 m 0,-6.9 h -8.3 C 98.1,39.7 87,50.7 87,64.3 V 264 c 0,13.6 11.1,24.7 24.7,24.7 h 8.3 c 13.6,0 24.7,-11.1 24.7,-24.7 V 64.3 C 144.7,50.7 133.6,39.7 120,39.7 Z"
           class="st3" /></g><g
         id="g21"><g
           id="g23"><path
             style="fill:#87c214"
             inkscape:connector-curvature="0"
             id="path25"
             d="M 234.7,183.8 V 64.3 c 0,-9.7 -7.9,-17.7 -17.7,-17.7 h -8.3 c -9.7,0 -17.7,8 -17.7,17.7 v 119.5 z"
             class="st2" /><rect
             style="display:none;fill:#87c214"
             id="rect27"
             height="43.700001"
             width="43.700001"
             class="st1"
             y="190.8"
             x="191" /><path
             style="fill:#87c214"
             inkscape:connector-curvature="0"
             id="path29"
             d="M 191,241.5 V 264 c 0,9.7 8,17.7 17.7,17.7 h 8.3 c 9.7,0 17.7,-8 17.7,-17.7 v -22.5 z"
             class="st2" /></g><path
           style="display:none;fill:#ffffff"
           inkscape:connector-curvature="0"
           id="path31"
           d="m 217,46.7 c 9.7,0 17.7,8 17.7,17.7 V 264 c 0,9.7 -7.9,17.7 -17.7,17.7 h -8.3 C 199,281.7 191,273.7 191,264 V 64.3 c 0,-9.7 8,-17.7 17.7,-17.7 h 8.3 m 0,-6.9 h -8.3 C 195.1,39.7 184,50.8 184,64.4 V 264 c 0,13.6 11.1,24.7 24.7,24.7 h 8.3 c 13.6,0 24.7,-11.1 24.7,-24.7 V 64.3 C 241.7,50.7 230.6,39.7 217,39.7 Z"
           class="st3" /></g><g
         id="g33"><g
           id="g35"><path
             style="fill:#95d220"
             inkscape:connector-curvature="0"
             id="path37"
             d="M 87,190.8 H 64.5 c -9.7,0 -17.7,7.9 -17.7,17.7 v 8.3 c 0,9.7 7.9,17.7 17.7,17.7 H 87 Z"
             class="st4" /><rect
             style="display:none;fill:#95d220"
             id="rect39"
             height="43.700001"
             width="43.700001"
             class="st5"
             y="190.8"
             x="94" /><path
             style="fill:#95d220"
             inkscape:connector-curvature="0"
             id="path41"
             d="M 264.2,190.8 H 144.7 v 43.7 h 119.5 c 9.7,0 17.7,-8 17.7,-17.7 v -8.3 c -0.1,-9.7 -8,-17.7 -17.7,-17.7 z"
             class="st4" /></g><path
           style="display:none;fill:#ffffff"
           inkscape:connector-curvature="0"
           id="path43"
           d="m 264.2,190.8 c 9.7,0 17.7,7.9 17.7,17.7 v 8.3 c 0,9.7 -8,17.7 -17.7,17.7 H 64.5 c -9.7,0 -17.7,-8 -17.7,-17.7 v -8.3 c 0,-9.7 7.9,-17.7 17.7,-17.7 h 199.7 m 0,-7 H 64.5 c -13.6,0 -24.7,11.1 -24.7,24.7 v 8.3 c 0,13.6 11.1,24.7 24.7,24.7 h 199.7 c 13.6,0 24.7,-11.1 24.7,-24.7 v -8.3 c -0.1,-13.6 -11.1,-24.7 -24.7,-24.7 z"
           class="st3" /></g><g
         id="g45"><g
           id="g47"><rect
             style="display:none;fill:#95d220"
             id="rect49"
             height="43.700001"
             width="43.700001"
             class="st5"
             y="93.800003"
             x="191" /><path
             style="fill:#95d220"
             inkscape:connector-curvature="0"
             id="path51"
             d="M 184,93.8 H 64.5 c -9.7,0 -17.7,7.9 -17.7,17.7 v 8.3 c 0,9.7 7.9,17.7 17.7,17.7 H 184 Z"
             class="st4" /><path
             style="fill:#95d220"
             inkscape:connector-curvature="0"
             id="path53"
             d="m 264.2,93.8 h -22.5 v 43.7 h 22.5 c 9.7,0 17.7,-7.9 17.7,-17.7 v -8.3 c -0.1,-9.7 -8,-17.7 -17.7,-17.7 z"
             class="st4" /></g><path
           style="display:none;fill:#ffffff"
           inkscape:connector-curvature="0"
           id="path55"
           d="m 264.2,93.8 c 9.7,0 17.7,7.9 17.7,17.7 v 8.3 c 0,9.7 -8,17.7 -17.7,17.7 H 64.5 c -9.7,0 -17.7,-7.9 -17.7,-17.7 v -8.3 c 0,-9.7 7.9,-17.7 17.7,-17.7 h 199.7 m 0,-7 H 64.5 c -13.6,0 -24.7,11.1 -24.7,24.7 v 8.3 c 0,13.6 11.1,24.7 24.7,24.7 h 199.7 c 13.6,0 24.7,-11.1 24.7,-24.7 v -8.3 C 288.8,97.9 277.8,86.8 264.2,86.8 Z"
           class="st3" /></g></g></g></svg>