<?xml version="1.0" encoding="UTF-8" standalone="no"?>
<!-- Generator: Adobe Illustrator 13.0.2, SVG Export Plug-In . SVG Version: 6.00 Build 14948)  -->

<svg
   xmlns:dc="http://purl.org/dc/elements/1.1/"
   xmlns:cc="http://creativecommons.org/ns#"
   xmlns:rdf="http://www.w3.org/1999/02/22-rdf-syntax-ns#"
   xmlns:svg="http://www.w3.org/2000/svg"
   xmlns="http://www.w3.org/2000/svg"
   xmlns:sodipodi="http://sodipodi.sourceforge.net/DTD/sodipodi-0.dtd"
   xmlns:inkscape="http://www.inkscape.org/namespaces/inkscape"
   id="Layer_1"
   xml:space="preserve"
   height="257.01346"
   viewBox="0 0 250 257.01346"
   width="250"
   version="1.1"
   y="0px"
   x="0px"
   enable-background="new 0 0 176.486 181.437"
   inkscape:version="0.92.2 (5c3e80d, 2017-08-06)"
   sodipodi:docname="logo-xmpp.svg"><metadata
     id="metadata41"><rdf:RDF><cc:Work
         rdf:about=""><dc:format>image/svg+xml</dc:format><dc:type
           rdf:resource="http://purl.org/dc/dcmitype/StillImage" /><dc:title></dc:title></cc:Work></rdf:RDF></metadata><defs
     id="defs39" /><sodipodi:namedview
     pagecolor="#000000"
     bordercolor="#666666"
     borderopacity="1"
     objecttolerance="10"
     gridtolerance="10"
     guidetolerance="10"
     inkscape:pageopacity="0"
     inkscape:pageshadow="2"
     inkscape:window-width="1920"
     inkscape:window-height="1020"
     id="namedview37"
     showgrid="false"
     inkscape:zoom="0.65035273"
     inkscape:cx="-574.14639"
     inkscape:cy="325.67358"
     inkscape:window-x="1440"
     inkscape:window-y="24"
     inkscape:window-maximized="0"
     inkscape:current-layer="Layer_1"
     fit-margin-top="0"
     fit-margin-left="0"
     fit-margin-right="0"
     fit-margin-bottom="0" /><linearGradient
     id="SVGID_1_"
     y2="0.00048828"
     gradientUnits="userSpaceOnUse"
     x2="-1807.2"
     gradientTransform="translate(1916)"
     y1="125.86"
     x1="-1807.2"><stop
       stop-color="#1b3967"
       offset=".011"
       id="stop4" /><stop
       stop-color="#13b5ea"
       offset=".467"
       id="stop6" /><stop
       stop-color="#002b5c"
       offset=".9945"
       id="stop8" /></linearGradient><linearGradient
     id="SVGID_2_"
     y2="1.279e-13"
     gradientUnits="userSpaceOnUse"
     x2="-1073.2"
     gradientTransform="matrix(-1,0,0,1,-1008.2,0)"
     y1="126.85"
     x1="-1073.2"><stop
       stop-color="#1b3967"
       offset=".011"
       id="stop15" /><stop
       stop-color="#13b5ea"
       offset=".467"
       id="stop17" /><stop
       stop-color="#002b5c"
       offset=".9945"
       id="stop19" /></linearGradient><g
     id="g839"
     transform="matrix(1.4165516,0,0,1.4165516,-0.00620869,-0.00141655)"><path
       id="path10"
       d="m 136.29,14.189 c 0.077,1.313 -1.786,0.968 -1.786,2.293 0,38.551 -44.72,96.831 -89.847,108.19 v 1.182 c 59.957,-5.51 126.73,-66.8 128.24,-125.85 l -36.6,14.189 z"
       style="fill:url(#SVGID_1_)"
       inkscape:connector-curvature="0" /><path
       id="path12"
       d="m 120.23,17.96 c 0.077,1.313 0.121,2.633 0.121,3.958 0,38.551 -30.7,90.497 -75.827,101.86 v 1.637 c 59.065,-3.823 105.81,-63.023 105.81,-109.2 0,-2.375 -0.125,-4.729 -0.371,-7.056 l -29.73,8.796 z"
       inkscape:connector-curvature="0"
       style="fill:#e96d1f" /><path
       id="path21"
       d="m 36.599,14.189 c -0.077,1.313 1.787,0.968 1.787,2.293 0,38.551 46.558,97.366 91.688,108.73 v 1.639 C 70.121,121.331 1.514,59.051 0.004,0.001 L 36.603,14.19 Z"
       style="fill:url(#SVGID_2_)"
       inkscape:connector-curvature="0" /><path
       id="path23"
       d="m 54.731,18.932 c -0.076,1.313 -0.12,2.63 -0.12,3.957 0,38.551 30.699,90.497 75.827,101.86 v 1.639 c -59.044,-2.79 -105.81,-63.024 -105.81,-109.2 0,-2.375 0.128,-4.729 0.371,-7.056 l 29.73,8.798 z"
       inkscape:connector-curvature="0"
       style="fill:#a0ce67" /><path
       id="path25"
       d="m 24.713,9.583 7.617,2.722 c -0.041,0.962 -0.066,2.254 -0.066,3.225 0,41.219 37.271,98.204 87.272,107.12 3.245,1.088 7.538,2.077 10.932,2.931 v 1.638 C 65.214,121.659 19.368,55.353 24.708,9.579 Z"
       inkscape:connector-curvature="0"
       style="fill:#439639" /><path
       id="path27"
       d="m 150.34,8.76 -7.833,2.625 c 0.041,0.963 0.191,2.203 0.191,3.173 0,41.219 -37.272,98.205 -87.274,107.12 -3.243,1.089 -7.538,2.077 -10.93,2.932 v 1.639 c 68.344,-8.66 111.18,-71.719 105.84,-117.49 z"
       inkscape:connector-curvature="0"
       style="fill:#d9541e" /><path
       style="fill:#ffffff;fill-opacity:1"
       id="path29"
       d="M 14.576,166.71 1.188,152.06 h 11.643 l 9.127,10.268 9.129,-10.268 H 42.73 l -13.387,14.646 14.401,14.728 h -12.09 l -9.697,-10.67 -9.693,10.67 H 0.172 l 14.404,-14.73 z"
       inkscape:connector-curvature="0" /><path
       style="fill:#ffffff;fill-opacity:1"
       id="path31"
       d="M 47.096,152.06 H 60.932 L 71.115,170.965 81.298,152.06 H 95.13 v 29.374 h -8.762 v -21.096 h -0.08 L 74.481,181.434 H 67.748 L 55.941,160.338 h -0.082 v 21.096 h -8.764 v -29.37 z"
       inkscape:connector-curvature="0" /><path
       style="fill:#ffffff;fill-opacity:1"
       id="path33"
       d="m 101.25,152.06 h 24.546 c 8.559,0 10.628,4.302 10.628,10.063 v 2.516 c 0,4.381 -1.908,9.41 -8.275,9.41 h -17.894 v 7.385 h -9.005 v -29.38 z m 9,14.69 h 13.997 c 2.109,0 2.924,-1.377 2.924,-3.123 v -1.135 c 0,-1.99 -0.976,-3.127 -3.694,-3.127 H 110.25 v 7.38 z"
       inkscape:connector-curvature="0" /><path
       style="fill:#ffffff;fill-opacity:1"
       id="path35"
       d="m 141.31,152.06 h 24.546 c 8.561,0 10.63,4.302 10.63,10.063 v 2.516 c 0,4.381 -1.907,9.41 -8.275,9.41 h -17.893 v 7.385 h -9.008 v -29.38 z m 9.01,14.69 h 13.996 c 2.11,0 2.922,-1.377 2.922,-3.123 v -1.135 c 0,-1.99 -0.974,-3.127 -3.693,-3.127 H 150.32 v 7.38 z"
       inkscape:connector-curvature="0" /></g></svg>