<?xml version="1.0" encoding="UTF-8" standalone="no"?>
<!-- Generator: Adobe Illustrator 19.0.0, SVG Export Plug-In . SVG Version: 6.00 Build 0)  -->

<svg
   xmlns:dc="http://purl.org/dc/elements/1.1/"
   xmlns:cc="http://creativecommons.org/ns#"
   xmlns:rdf="http://www.w3.org/1999/02/22-rdf-syntax-ns#"
   xmlns:svg="http://www.w3.org/2000/svg"
   xmlns="http://www.w3.org/2000/svg"
   xmlns:sodipodi="http://sodipodi.sourceforge.net/DTD/sodipodi-0.dtd"
   xmlns:inkscape="http://www.inkscape.org/namespaces/inkscape"
   version="1.1"
   id="Ebene_1"
   x="0px"
   y="0px"
   viewBox="0 0 381.10383 492.46782"
   xml:space="preserve"
   inkscape:version="0.92.2 (5c3e80d, 2017-08-06)"
   sodipodi:docname="logo-briar-circle.svg"
   width="381.10382"
   height="492.4678"><metadata
     id="metadata61"><rdf:RDF><cc:Work
         rdf:about=""><dc:format>image/svg+xml</dc:format><dc:type
           rdf:resource="http://purl.org/dc/dcmitype/StillImage" /><dc:title></dc:title></cc:Work></rdf:RDF></metadata><defs
     id="defs59" /><sodipodi:namedview
     pagecolor="#000000"
     bordercolor="#666666"
     borderopacity="1"
     objecttolerance="10"
     gridtolerance="10"
     guidetolerance="10"
     inkscape:pageopacity="0"
     inkscape:pageshadow="2"
     inkscape:window-width="1920"
     inkscape:window-height="1021"
     id="namedview57"
     showgrid="false"
     inkscape:zoom="1.4333435"
     inkscape:cx="164.03601"
     inkscape:cy="251.34366"
     inkscape:window-x="1443"
     inkscape:window-y="23"
     inkscape:window-maximized="0"
     inkscape:current-layer="Ebene_1"
     fit-margin-top="25"
     fit-margin-left="25"
     fit-margin-right="25"
     fit-margin-bottom="25" /><style
     type="text/css"
     id="style3">
	.st0{fill:#FFFFFF;}
	.st1{display:none;fill:#87C214;}
	.st2{fill:#87C214;}
	.st3{display:none;fill:#FFFFFF;}
	.st4{fill:#95D220;}
	.st5{display:none;fill:#95D220;}
</style><g
     id="g864"
     transform="translate(25,25)"><circle
       r="165"
       class="st0"
       cx="165"
       cy="165"
       id="circle7"
       style="fill:#ffffff" /><g
       transform="translate(0.2999939,1.2000061)"
       id="g4214"><g
         id="g9"><g
           id="g11"><rect
             style="display:none;fill:#87c214"
             id="rect13"
             height="43.700001"
             width="43.700001"
             class="st1"
             y="93.800003"
             x="94" /><path
             style="fill:#87c214"
             inkscape:connector-curvature="0"
             id="path15"
             d="M 94,144.5 V 264 c 0,9.7 7.9,17.7 17.7,17.7 h 8.3 c 9.7,0 17.7,-8 17.7,-17.7 V 144.5 Z"
             class="st2" /><path
             style="fill:#87c214"
             inkscape:connector-curvature="0"
             id="path17"
             d="M 137.7,86.8 V 64.3 c 0,-9.7 -8,-17.7 -17.7,-17.7 h -8.3 C 102,46.6 94,54.6 94,64.3 v 22.5 z"
             class="st2" /></g><path
           style="display:none;fill:#ffffff"
           inkscape:connector-curvature="0"
           id="path19"
           d="m 120,46.7 c 9.7,0 17.7,8 17.7,17.7 V 264 c 0,9.7 -8,17.7 -17.7,17.7 h -8.3 C 102,281.7 94,273.7 94,264 V 64.3 c 0,-9.7 7.9,-17.7 17.7,-17.7 h 8.3 m 0,-6.9 h -8.3 C 98.1,39.7 87,50.7 87,64.3 V 264 c 0,13.6 11.1,24.7 24.7,24.7 h 8.3 c 13.6,0 24.7,-11.1 24.7,-24.7 V 64.3 C 144.7,50.7 133.6,39.7 120,39.7 Z"
           class="st3" /></g><g
         id="g21"><g
           id="g23"><path
             style="fill:#87c214"
             inkscape:connector-curvature="0"
             id="path25"
             d="M 234.7,183.8 V 64.3 c 0,-9.7 -7.9,-17.7 -17.7,-17.7 h -8.3 c -9.7,0 -17.7,8 -17.7,17.7 v 119.5 z"
             class="st2" /><rect
             style="display:none;fill:#87c214"
             id="rect27"
             height="43.700001"
             width="43.700001"
             class="st1"
             y="190.8"
             x="191" /><path
             style="fill:#87c214"
             inkscape:connector-curvature="0"
             id="path29"
             d="M 191,241.5 V 264 c 0,9.7 8,17.7 17.7,17.7 h 8.3 c 9.7,0 17.7,-8 17.7,-17.7 v -22.5 z"
             class="st2" /></g><path
           style="display:none;fill:#ffffff"
           inkscape:connector-curvature="0"
           id="path31"
           d="m 217,46.7 c 9.7,0 17.7,8 17.7,17.7 V 264 c 0,9.7 -7.9,17.7 -17.7,17.7 h -8.3 C 199,281.7 191,273.7 191,264 V 64.3 c 0,-9.7 8,-17.7 17.7,-17.7 h 8.3 m 0,-6.9 h -8.3 C 195.1,39.7 184,50.8 184,64.4 V 264 c 0,13.6 11.1,24.7 24.7,24.7 h 8.3 c 13.6,0 24.7,-11.1 24.7,-24.7 V 64.3 C 241.7,50.7 230.6,39.7 217,39.7 Z"
           class="st3" /></g><g
         id="g33"><g
           id="g35"><path
             style="fill:#95d220"
             inkscape:connector-curvature="0"
             id="path37"
             d="M 87,190.8 H 64.5 c -9.7,0 -17.7,7.9 -17.7,17.7 v 8.3 c 0,9.7 7.9,17.7 17.7,17.7 H 87 Z"
             class="st4" /><rect
             style="display:none;fill:#95d220"
             id="rect39"
             height="43.700001"
             width="43.700001"
             class="st5"
             y="190.8"
             x="94" /><path
             style="fill:#95d220"
             inkscape:connector-curvature="0"
             id="path41"
             d="M 264.2,190.8 H 144.7 v 43.7 h 119.5 c 9.7,0 17.7,-8 17.7,-17.7 v -8.3 c -0.1,-9.7 -8,-17.7 -17.7,-17.7 z"
             class="st4" /></g><path
           style="display:none;fill:#ffffff"
           inkscape:connector-curvature="0"
           id="path43"
           d="m 264.2,190.8 c 9.7,0 17.7,7.9 17.7,17.7 v 8.3 c 0,9.7 -8,17.7 -17.7,17.7 H 64.5 c -9.7,0 -17.7,-8 -17.7,-17.7 v -8.3 c 0,-9.7 7.9,-17.7 17.7,-17.7 h 199.7 m 0,-7 H 64.5 c -13.6,0 -24.7,11.1 -24.7,24.7 v 8.3 c 0,13.6 11.1,24.7 24.7,24.7 h 199.7 c 13.6,0 24.7,-11.1 24.7,-24.7 v -8.3 c -0.1,-13.6 -11.1,-24.7 -24.7,-24.7 z"
           class="st3" /></g><g
         id="g45"><g
           id="g47"><rect
             style="display:none;fill:#95d220"
             id="rect49"
             height="43.700001"
             width="43.700001"
             class="st5"
             y="93.800003"
             x="191" /><path
             style="fill:#95d220"
             inkscape:connector-curvature="0"
             id="path51"
             d="M 184,93.8 H 64.5 c -9.7,0 -17.7,7.9 -17.7,17.7 v 8.3 c 0,9.7 7.9,17.7 17.7,17.7 H 184 Z"
             class="st4" /><path
             style="fill:#95d220"
             inkscape:connector-curvature="0"
             id="path53"
             d="m 264.2,93.8 h -22.5 v 43.7 h 22.5 c 9.7,0 17.7,-7.9 17.7,-17.7 v -8.3 c -0.1,-9.7 -8,-17.7 -17.7,-17.7 z"
             class="st4" /></g><path
           style="display:none;fill:#ffffff"
           inkscape:connector-curvature="0"
           id="path55"
           d="m 264.2,93.8 c 9.7,0 17.7,7.9 17.7,17.7 v 8.3 c 0,9.7 -8,17.7 -17.7,17.7 H 64.5 c -9.7,0 -17.7,-7.9 -17.7,-17.7 v -8.3 c 0,-9.7 7.9,-17.7 17.7,-17.7 h 199.7 m 0,-7 H 64.5 c -13.6,0 -24.7,11.1 -24.7,24.7 v 8.3 c 0,13.6 11.1,24.7 24.7,24.7 h 199.7 c 13.6,0 24.7,-11.1 24.7,-24.7 v -8.3 C 288.8,97.9 277.8,86.8 264.2,86.8 Z"
           class="st3" /></g></g></g><path
     d="m 26.103805,388.68963 v 78.77818 h 36.88365 c 17.390564,0 26.508056,-8.70693 26.508056,-22.3282 0,-8.84682 -4.067917,-15.44627 -12.202206,-19.09733 v -0.13986 c 6.170845,-3.7915 8.836937,-8.56651 8.836937,-16.00907 0,-11.23404 -7.713462,-21.2037 -23.982055,-21.2037 z m 76.575795,0 v 78.77818 h 9.25383 v -31.59574 l -0.97914,-0.98188 h 18.65026 c 10.37824,0 16.27061,3.64887 20.05727,11.79354 l 9.81607,20.78408 h 10.37833 l -11.63996,-24.57447 c -2.52444,-5.47659 -6.59204,-8.98723 -10.23845,-10.53191 v -0.13986 c 8.55503,-2.24682 15.70736,-9.97077 15.70736,-20.22183 0,-15.58723 -12.05992,-23.31009 -26.50531,-23.31009 z m 76.85282,0 v 78.77818 h 9.25655 v -78.77818 z m 54.41763,0 -34.64286,78.77818 h 10.09855 l 8.41458,-18.95745 -0.41964,-0.98188 h 43.05469 l -0.41963,0.98188 8.41456,18.95745 h 10.09857 l -34.78275,-78.77818 z m 54.9744,0 v 78.77818 h 9.25656 v -31.59574 l -0.98189,-0.98188 h 18.65302 c 10.37826,0 16.27061,3.64887 20.05726,11.79354 l 9.81608,20.78408 h 10.37833 l -11.63997,-24.57447 c -2.52443,-5.47659 -6.59205,-8.98723 -10.23845,-10.53191 v -0.13986 c 8.55504,-2.24682 15.70738,-9.97077 15.70738,-20.22183 0,-15.58723 -12.05995,-23.31009 -26.50533,-23.31009 z m -254.545958,8.7053 h 26.787812 c 10.097747,0 15.424874,4.07288 15.424874,12.49841 0,7.02128 -4.205155,12.6383 -15.424874,12.6383 H 34.378492 l 0.981884,-0.98188 v -23.17022 z m 76.575798,0 h 26.22557 c 9.53676,0 16.82875,3.933 16.96899,14.46492 0,8.42553 -6.59091,14.32231 -17.95087,14.32231 h -25.24369 l 0.97914,-0.98189 v -26.82073 z m 186.10496,0 h 26.22558 c 9.67701,0 16.97173,3.933 16.97173,14.46492 0,8.42553 -6.59091,14.32231 -17.95088,14.32231 h -25.24643 l 0.98188,-0.98189 v -26.82073 z m -58.06266,0.98461 h 0.14262 l 2.38341,7.86329 13.88347,31.59574 0.98187,0.98189 h -34.64012 l 0.98187,-0.98189 13.88349,-31.59574 z M 34.378492,431.23693 h 28.608963 c 11.640462,0 16.971745,5.33671 16.971745,13.90268 0,8.70638 -4.91054,13.62292 -16.971745,13.62292 H 34.378492 l 0.981884,-0.98463 v -25.55635 z"
     id="path57"
     inkscape:connector-curvature="0"
     style="fill:#ffffff;stroke-width:1.40425527" /></svg>