<?xml version="1.0" encoding="UTF-8" standalone="no"?>
<!-- Created with Inkscape (http://www.inkscape.org/) -->

<svg
   xmlns:dc="http://purl.org/dc/elements/1.1/"
   xmlns:cc="http://creativecommons.org/ns#"
   xmlns:rdf="http://www.w3.org/1999/02/22-rdf-syntax-ns#"
   xmlns:svg="http://www.w3.org/2000/svg"
   xmlns="http://www.w3.org/2000/svg"
   xmlns:sodipodi="http://sodipodi.sourceforge.net/DTD/sodipodi-0.dtd"
   xmlns:inkscape="http://www.inkscape.org/namespaces/inkscape"
   width="324.26666"
   height="208"
   id="svg2"
   sodipodi:version="0.32"
   inkscape:version="0.92.1 r"
   version="1.0"
   sodipodi:docname="wifi.svg"
   inkscape:output_extension="org.inkscape.output.svg.inkscape"
   viewBox="0 0 304 195">
  <defs
     id="defs4">
    <inkscape:perspective
       sodipodi:type="inkscape:persp3d"
       inkscape:vp_x="1693.0157 : 423.14553 : 1"
       inkscape:vp_y="6.1230319e-14 : 1000 : 0"
       inkscape:vp_z="2437.1101 : 423.14553 : 1"
       inkscape:persp3d-origin="2065.0629 : 247.75183 : 1"
       id="perspective10" />
    <inkscape:perspective
       id="perspective2447"
       inkscape:persp3d-origin="372.04724 : 350.78739 : 1"
       inkscape:vp_z="744.09449 : 526.18109 : 1"
       inkscape:vp_y="0 : 1000 : 0"
       inkscape:vp_x="0 : 526.18109 : 1"
       sodipodi:type="inkscape:persp3d" />
  </defs>
  <sodipodi:namedview
     id="base"
     pagecolor="#000000"
     bordercolor="#666666"
     borderopacity="1.0"
     gridtolerance="10000"
     guidetolerance="10"
     objecttolerance="10"
     inkscape:pageopacity="0"
     inkscape:pageshadow="2"
     inkscape:zoom="1.3818887"
     inkscape:cx="112.83255"
     inkscape:cy="103.6173"
     inkscape:document-units="px"
     inkscape:current-layer="layer1"
     showgrid="false"
     inkscape:window-width="1920"
     inkscape:window-height="1021"
     inkscape:window-x="1440"
     inkscape:window-y="23"
     inkscape:window-maximized="0" />
  <metadata
     id="metadata7">
    <rdf:RDF>
      <cc:Work
         rdf:about="">
        <dc:format>image/svg+xml</dc:format>
        <dc:type
           rdf:resource="http://purl.org/dc/dcmitype/StillImage" />
        <dc:title></dc:title>
      </cc:Work>
    </rdf:RDF>
  </metadata>
  <g
     inkscape:label="Layer 1"
     inkscape:groupmode="layer"
     id="layer1"
     transform="translate(-145.14287,-334.86218)">
    <path
       id="path3281"
       style="opacity:1;fill:#ffffff;fill-opacity:0.97933882;fill-rule:evenodd;stroke:none;stroke-width:1px;stroke-linecap:butt;stroke-linejoin:miter;stroke-opacity:1"
       d="m 425.2708,376.22429 v 2.17814 h 3.72494 v 10.25936 h 2.36754 V 378.434 h 3.6618 v -2.24128 z m 11.96399,0.0947 v 12.31124 h 1.89404 v -9.50175 l 2.95615,8.25614 1.99371,-0.0139 3.06822,-8.11599 v 9.53331 h 1.92561 v -12.50063 h -3.53554 l -2.49299,8.78645 -2.55777,-8.75489 z M 145.14287,450.31267 V 415.4624 c 0,0 -0.37881,-15.02601 14.64721,-30.05203 15.02602,-15.02602 29.29443,-13.38452 29.29443,-13.38452 h 19.69797 c 0,0 24.74874,-37.12311 73.74114,-37.12311 48.99239,0 77.02413,36.61803 77.02413,36.61803 h 22.22335 c 0,0 5.61025,-0.25403 12.66151,3.28709 7.12703,3.57918 13.53849,7.70338 20.06663,17.83514 6.54672,10.16061 7.42543,17.48017 7.42543,22.8194 0,0 0,38.13326 0,38.13326 0,7.9502 -0.75762,14.14214 -14.14214,27.52666 -13.38452,13.38452 -30.55711,11.86929 -30.55711,11.86929 h -20.45559 c 0,0 -25.54935,36.82516 -73.4886,36.82516 -47.94704,0 -72.47844,-36.57262 -72.47844,-36.57262 h -22.72844 c 0,0 -15.02602,0.88388 -29.54696,-13.63706 -14.52094,-14.52094 -13.13198,-29.29442 -13.38452,-29.29442 z m 24.11739,-50.12882 14.14214,60.98796 h 15.53109 l 6.9448,-35.1028 6.69226,35.1028 h 15.90991 l 14.14213,-60.60916 h -16.92005 l -4.9245,33.20877 -6.9448,-33.33503 h -15.27855 l -6.9448,33.71384 -5.17704,-33.84011 z m 81.3542,17.06072 v 43.87112 h 14.92523 v -43.87112 z m 17.18663,-12.39246 c 0,4.24419 -4.21453,7.68875 -9.40742,7.68875 -5.19289,0 -9.40741,-3.44456 -9.40741,-7.68875 0,-4.24419 4.21452,-7.68875 9.40741,-7.68875 5.19289,0 9.40742,3.44456 9.40742,7.68875 z m 3.61823,79.51075 c 0,0 18.63392,-14.14069 18.63392,-35.18735 0,0 0,-35.45872 0,-35.45872 0,-5.70122 2.92325,-13.77796 11.66881,-22.52352 8.74556,-8.74556 16.45238,-10.13106 21.79988,-10.13106 0,0 55.53993,0 55.53993,0 9.44034,0.13157 16.77581,4.08862 23.51853,10.40243 6.24776,6.5645 10.31198,14.7908 10.31198,23.7899 v 33.92097 c 0,6.67743 -1.79054,16.35395 -10.6738,24.51355 -8.88326,8.1596 -15.72893,10.6738 -22.79489,10.6738 0,0 -108.00436,0 -108.00436,0 z m 102.57695,-67.07307 v 43.87112 h 14.92523 v -43.87112 z m 17.18663,-12.39246 c 0,4.24419 -4.21453,7.68875 -9.40742,7.68875 -5.19289,0 -9.40741,-3.44456 -9.40741,-7.68875 0,-4.24419 4.21452,-7.68875 9.40741,-7.68875 5.19289,0 9.40742,3.44456 9.40742,7.68875 z m -79.96297,55.94699 h 16.73434 v -18.27209 h 31.84048 v -13.65885 h -31.93094 v -14.29203 h 36.09191 v -14.20158 h -52.82625 z"
       sodipodi:nodetypes="cccccccccccccccccccccccccsccsccssccsccsccscccccccccccccccccccccsssccccscccccsccccccccssscccccccccccc"
       inkscape:connector-curvature="0" />
    <path
       style="fill:#000015;fill-opacity:1"
       d="m 38.354192,125.39247 c -0.447841,-1.33494 -13.57503,-58.49942 -13.57503,-59.114671 0,-0.48498 1.9789,-0.63957 8.187134,-0.63957 4.502924,0 8.186134,0.172698 8.18491,0.383772 -0.0037,0.647807 4.627377,31.001373 4.937987,32.364766 0.270505,1.187355 0.318138,1.205732 0.663146,0.255848 0.204438,-0.562865 1.849042,-8.224778 3.654674,-17.026473 l 3.282968,-16.003081 7.397918,0.140508 7.397918,0.140508 3.351251,16.207259 c 1.843189,8.913993 3.491965,16.347975 3.663951,16.519961 0.410989,0.410989 0.489125,-0.03701 3.052972,-17.504267 L 80.75086,66.149925 h 8.08871 c 4.448792,0 8.088715,0.146356 8.088715,0.325235 0,0.369669 -13.215396,57.27129 -13.620925,58.64772 -0.235948,0.80083 -1.067679,0.89547 -7.870303,0.89547 -6.80128,0 -7.634776,-0.0948 -7.873834,-0.89547 -0.147049,-0.49251 -1.662973,-8.2484 -3.368722,-17.23531 -1.70575,-8.986918 -3.207377,-16.445862 -3.336949,-16.575435 -0.399998,-0.399997 -0.6438,0.693065 -3.974724,17.820245 l -3.234254,16.63012 -7.537598,0.14166 c -5.760068,0.10826 -7.589287,-0.0124 -7.756784,-0.51169 z"
       id="path2814"
       transform="translate(145.14287,334.86218)"
       inkscape:connector-curvature="0" />
    <path
       style="fill:#000000;fill-opacity:1"
       d="M 105.62712,104.27127 V 82.524194 h 7.16374 7.16374 v 21.747076 21.74708 h -7.16374 -7.16374 z"
       id="path2816"
       transform="translate(145.14287,334.86218)"
       inkscape:connector-curvature="0" />
    <path
       style="fill:#000000;fill-opacity:1"
       d="m 109.87745,76.869158 c -0.89879,-0.274794 -2.43346,-1.253464 -3.41039,-2.174822 -3.38782,-3.195125 -2.84853,-7.712365 1.24406,-10.420717 1.77034,-1.171553 2.73293,-1.434018 5.28517,-1.441081 11.80196,-0.03266 12.57809,13.617509 0.81796,14.385811 -1.26645,0.08274 -3.03801,-0.0744 -3.9368,-0.349191 z"
       id="path2818"
       transform="translate(145.14287,334.86218)"
       inkscape:connector-curvature="0" />
    <path
       style="fill:#000000;fill-opacity:1"
       d="m 131.32077,145.03949 c 5.99946,-6.27956 9.7733,-12.3945 12.21262,-19.78869 1.14295,-3.46456 1.19165,-4.34438 1.4868,-26.864033 0.32797,-25.023316 0.28749,-24.638195 3.19979,-30.445906 1.70145,-3.393049 5.82578,-8.649151 9.52503,-12.138837 4.09514,-3.863152 8.24462,-6.493302 12.86749,-8.156074 l 3.32602,-1.196317 h 31.72515 c 34.90986,0 34.3956,-0.0405 41.44736,3.264291 8.94786,4.193392 17.21604,14.283171 19.4424,23.725842 1.12494,4.77119 1.11347,44.373344 -0.0141,48.761274 -2.33503,9.08667 -8.82127,17.19952 -18.26049,22.83986 -7.16609,4.28206 -2.63115,4.00376 -65.24325,4.00376 h -55.54131 l 3.82652,-4.00517 z M 243.78501,104.27127 V 82.012498 h -7.67544 -7.67544 v 22.258772 22.25877 h 7.67544 7.67544 z m -60.89181,12.7924 v -8.95468 h 16.11842 16.11842 v -7.16374 -7.163746 H 199.01162 182.8932 v -6.907895 -6.907894 h 18.1652 18.16521 v -7.419591 -7.419591 h -26.94439 -26.9444 l 0.33621,8.524707 c 0.18491,4.688588 0.3362,18.389246 0.3362,30.44591 v 21.9212 h 8.44299 8.44298 z m 57.44753,-39.686008 c 5.50647,-1.529182 7.77524,-8.26653 4.05144,-12.0312 -4.33496,-4.382541 -11.79449,-4.258949 -15.59558,0.258391 -2.58713,3.074625 -2.45591,6.604646 0.34982,9.410366 2.64079,2.640792 6.9314,3.54628 11.19432,2.362443 z"
       id="path2820"
       transform="translate(145.14287,334.86218)"
       inkscape:connector-curvature="0" />
  </g>
</svg>
